<?xml version="1.0" encoding="UTF-8"?>
<!DOCTYPE svg PUBLIC "-//W3C//DTD SVG 1.1//EN" "http://www.w3.org/Graphics/SVG/1.1/DTD/svg11.dtd">
<!-- Creator: CorelDRAW X7 -->
<svg xmlns="http://www.w3.org/2000/svg" xml:space="preserve" width="3.27778in" height="3.52778in" version="1.1" style="shape-rendering:geometricPrecision; text-rendering:geometricPrecision; image-rendering:optimizeQuality; fill-rule:evenodd; clip-rule:evenodd"
viewBox="0 0 683 735"
 xmlns:xlink="http://www.w3.org/1999/xlink">
 <defs>
  <style type="text/css">
   <![CDATA[
    .fil2 {fill:red}
    .fil0 {fill:white}
    .fil1 {fill:red;fill-rule:nonzero}
   ]]>
  </style>
 </defs>
 <g id="Layer_x0020_1">
  <metadata id="CorelCorpID_0Corel-Layer"/>
  <g id="_2432765091136">
   <path class="fil0" d="M0 0l683 0 0 735 -683 0 0 -735zm137 363l0 -5c-9,-1 -11,-3 -16,-15 -9,-25 -18,-50 -27,-74l-7 1 -30 74c-4,12 -6,13 -15,14l-1 5 32 0 0 -5c-10,-1 -10,-3 -8,-10 1,-5 3,-11 5,-15l27 0c2,6 5,12 6,16 2,6 2,8 -7,9l0 5 41 0zm-42 -38l-23 0c4,-10 8,-20 12,-30l0 0 11 30zm91 -8c0,-2 -2,-13 -4,-16 -3,-1 -7,-2 -13,-2 -15,0 -24,9 -24,20 0,12 11,18 18,21 9,4 11,8 11,12 0,4 -3,8 -8,8 -9,0 -15,-10 -18,-19l-5 0c0,7 2,17 3,19 2,2 10,5 17,5 12,0 26,-7 26,-21 0,-11 -8,-16 -19,-21 -8,-3 -11,-7 -11,-11 0,-5 4,-8 7,-8 7,0 12,6 16,15l4 -2zm36 -9l0 -11c-10,3 -19,5 -27,7l0 4c7,1 9,2 9,10l0 64c0,8 -1,9 -10,10l0 4 40 0 0 -4c-11,-1 -12,-2 -12,-10l0 -19c2,1 5,2 9,2 18,-4 34,-18 34,-39 0,-14 -9,-27 -25,-27 -3,0 -5,1 -8,2l-10 7zm0 5c2,-2 5,-4 9,-4 7,0 16,7 16,24 0,15 -6,25 -13,25 -4,0 -9,-3 -12,-6l0 -39zm67 -23c6,0 11,-5 11,-10 0,-6 -5,-10 -10,-10 -6,0 -11,4 -11,10 0,5 5,10 10,10zm20 73l0 -4c-9,-1 -9,-2 -9,-12l0 -48c-8,2 -18,4 -26,5l0 4c7,1 8,1 8,11l0 28c0,10 -1,11 -10,12l0 4 37 0zm33 -49l0 -16c-9,3 -17,5 -26,6l0 4c7,1 8,2 8,9l0 31c0,9 -2,10 -9,11l0 4 39 0 0 -4c-11,-1 -12,-2 -12,-11l0 -26c2,-6 5,-8 8,-8 2,0 4,1 6,3 1,1 3,2 5,1 4,-1 7,-5 7,-11 0,-4 -4,-8 -10,-8 -5,0 -11,6 -16,15l0 0zm94 43l-2 -5c-1,1 -3,2 -5,2 -2,0 -4,-2 -4,-9l0 -23c0,-8 -2,-15 -8,-19 -4,-3 -8,-4 -14,-4 -8,1 -18,6 -23,10 -4,2 -5,4 -5,7 0,3 5,7 8,7 3,0 5,-1 6,-5 2,-5 3,-8 5,-10 1,-2 2,-3 4,-3 6,0 9,5 9,14l0 5c-3,3 -14,6 -23,9 -7,3 -11,6 -11,14 0,9 8,18 20,18 2,0 9,-5 15,-8 0,2 1,3 3,5 2,2 5,3 9,3l16 -8zm-29 -5c-2,2 -4,2 -6,2 -3,0 -9,-3 -9,-11 0,-4 3,-7 7,-9 3,-2 5,-3 8,-5l0 23zm106 11l0 -4c-7,-1 -8,-2 -8,-11l0 -27c0,-14 -7,-22 -19,-22 -4,0 -7,1 -11,4 -3,2 -6,4 -9,6l0 -11c-8,3 -17,5 -25,6l0 4c7,1 7,2 7,10l0 30c0,9 0,10 -9,11l0 4 34 0 0 -4c-6,-1 -7,-2 -7,-10l0 -35c4,-3 7,-4 11,-4 5,0 10,3 10,13l0 24c0,10 -1,11 -7,12l0 4 33 0zm48 -5l-1 -5c-2,1 -5,2 -7,2 -3,0 -8,-1 -8,-13l0 -35 13 0c2,-1 2,-5 1,-7l-14 0 0 -20 -2 -1 -16 11 0 10 -6 0 -4 5 1 2 9 0 0 40c0,13 6,18 17,18 1,0 3,0 6,-1l11 -6zm50 -41c0,-2 -2,-13 -3,-16 -4,-1 -7,-2 -14,-2 -15,0 -24,9 -24,20 0,12 12,18 18,21 9,4 11,8 11,12 0,4 -3,8 -8,8 -9,0 -15,-10 -18,-19l-5 0c1,7 2,17 3,19 3,2 10,5 18,5 12,0 25,-7 25,-21 0,-11 -7,-16 -19,-21 -7,-3 -11,-7 -11,-11 0,-5 4,-8 8,-8 6,0 11,6 15,15l4 -2zm-473 202l0 -5c-9,-1 -11,-3 -16,-16 -9,-25 -18,-50 -27,-75l-8 2 -29 74c-5,12 -7,14 -16,15l-1 5 33 0 0 -5c-11,-1 -11,-3 -9,-10 2,-6 4,-11 5,-16l28 0c2,6 4,12 6,17 2,6 1,8 -7,9l0 5 41 0zm-43 -38l-22 0c4,-11 7,-21 11,-32l1 0 10 32zm100 21c-5,4 -9,6 -15,6 -7,0 -20,-7 -20,-26 0,-15 6,-21 12,-21 4,0 8,2 14,8 2,1 3,1 4,1 2,0 6,-4 6,-8 0,-2 -1,-4 -3,-5 -2,-2 -7,-4 -12,-4 -6,0 -15,2 -25,9 -9,7 -14,17 -14,28 0,16 11,31 31,31 9,0 18,-6 25,-16l-3 -3zm80 17l0 -5c-7,-1 -8,-1 -8,-10l0 -27c0,-16 -7,-24 -20,-24 -7,0 -14,5 -19,10l0 -46c-9,2 -19,4 -27,5l0 5c8,1 8,1 8,9l0 68c0,9 -1,10 -9,10l0 5 35 0 0 -5c-7,-1 -7,-2 -7,-10l0 -36c3,-3 7,-4 10,-4 6,0 11,4 11,15l0 25c0,8 -1,9 -8,10l0 5 34 0zm25 -75c5,0 10,-4 10,-10 0,-6 -5,-10 -10,-10 -6,0 -11,4 -11,10 0,6 5,10 11,10zm19 75l0 -5c-8,-1 -9,-1 -9,-11l0 -50c-8,3 -18,5 -26,6l0 4c7,1 8,1 8,11l0 29c0,10 -1,10 -10,11l0 5 37 0zm60 -18c-5,5 -10,6 -16,6 -10,0 -18,-7 -19,-23 14,0 32,-2 34,-2 4,-1 4,-3 4,-5 1,-12 -10,-24 -23,-24 -8,0 -16,4 -22,11 -6,6 -11,15 -11,26 0,16 11,31 30,31 6,0 17,-3 26,-16l-3 -4zm-23 -42c6,0 9,8 9,15 0,2 -1,3 -3,3 -6,0 -12,0 -17,0 0,-11 5,-18 11,-18zm101 -4l-26 0 0 5c8,1 9,3 7,8 -3,10 -8,23 -11,29 -2,-6 -7,-20 -11,-30 -2,-5 -1,-6 6,-7l0 -5 -36 0 0 5c7,1 9,3 12,9 7,17 13,34 20,52l6 0c9,-22 16,-40 21,-51 3,-7 5,-9 12,-10l0 -5zm55 46c-5,5 -11,6 -16,6 -11,0 -19,-7 -20,-23 14,0 32,-2 35,-2 3,-1 4,-3 4,-5 0,-12 -10,-24 -24,-24 -8,0 -16,4 -22,11 -6,6 -11,15 -11,26 0,16 11,31 30,31 6,0 18,-3 26,-16l-2 -4zm-24 -42c6,0 9,8 9,15 0,2 -1,3 -3,3 -6,0 -11,0 -17,0 1,-11 6,-18 11,-18zm60 10l0 -16c-9,3 -17,5 -26,6l0 4c7,1 8,2 8,9l0 32c0,9 -1,10 -9,10l0 5 39 0 0 -5c-11,-1 -12,-1 -12,-10l0 -27c3,-6 6,-8 8,-8 3,0 5,1 7,3 1,1 3,2 5,1 4,-1 7,-5 7,-11 0,-5 -4,-9 -10,-9 -5,0 -11,7 -16,16l-1 0zm76 3c0,-2 -2,-13 -4,-16 -3,-2 -7,-3 -13,-3 -16,0 -25,10 -25,21 0,12 12,18 19,21 9,5 11,8 11,12 0,5 -4,8 -8,8 -9,0 -16,-10 -19,-19l-4 0c0,7 1,18 2,20 3,2 11,5 18,5 12,0 26,-7 26,-22 0,-11 -8,-16 -19,-21 -8,-3 -11,-7 -11,-11 0,-5 4,-8 7,-8 7,0 12,6 16,15l4 -2z"/>
   <path class="fil1" d="M317 241c0,1 0,3 1,4 0,0 1,1 2,1 1,0 2,-1 3,-1 0,-1 1,-3 1,-4 0,-2 -1,-4 -1,-5 -1,-1 -2,-1 -3,-1 -1,0 -2,0 -2,1 -1,1 -1,3 -1,5zm-3 0c0,-3 0,-5 1,-6 2,-2 3,-3 5,-3 2,0 4,1 5,3 1,1 2,3 2,6 0,2 -1,4 -2,5 -1,2 -3,3 -5,3 -2,0 -3,-1 -5,-3 -1,-1 -1,-3 -1,-5z"/>
   <path id="1" class="fil1" d="M329 248l0 -15 3 0 5 8c0,0 1,1 1,1 0,1 1,2 1,2 0,0 0,-1 0,-1 0,-1 0,-1 0,-2l0 -8 2 0 0 15 -2 0 -5 -8c-1,0 -1,-1 -1,-1 0,-1 -1,-2 -1,-3 0,1 0,1 0,2 0,0 0,1 0,2l0 8 -3 0z"/>
   <path id="2" class="fil1" d="M353 244l3 0c0,2 -1,3 -2,4 -1,0 -2,1 -4,1 -2,0 -4,-1 -5,-2 -1,-2 -1,-4 -1,-6 0,-3 0,-5 2,-6 1,-2 2,-3 4,-3 2,0 3,1 4,1 1,1 1,2 2,4l-3 0c0,-1 -1,-1 -1,-2 -1,0 -1,0 -2,0 -1,0 -2,0 -2,1 -1,1 -1,3 -1,5 0,1 0,3 1,4 0,1 1,1 2,1 1,0 2,0 2,-1 1,0 1,-1 1,-1z"/>
   <polygon id="3" class="fil1" points="358,248 358,233 369,233 369,235 361,235 361,239 367,239 367,241 361,241 361,246 369,246 369,248 "/>
   <polygon class="fil1" points="567,407 567,394 562,394 562,392 574,392 574,394 570,394 570,407 "/>
   <path id="1" class="fil1" d="M578 400c0,1 0,3 1,4 0,0 1,1 3,1 1,0 2,-1 2,-1 1,-1 1,-3 1,-4 0,-2 0,-4 -1,-5 0,-1 -1,-1 -2,-1 -2,0 -3,0 -3,1 -1,1 -1,3 -1,5zm-3 0c0,-3 1,-5 2,-6 1,-2 2,-3 5,-3 2,0 3,1 4,3 1,1 2,3 2,6 0,2 -1,4 -2,5 -1,2 -2,3 -4,3 -3,0 -4,-1 -5,-3 -1,-1 -2,-3 -2,-5z"/>
   <path id="2" class="fil1" d="M594 405l1 0c2,0 3,-1 4,-2 0,0 1,-2 1,-4 0,-1 -1,-3 -1,-4 -1,0 -2,-1 -4,-1l-1 0 0 11zm-3 2l0 -15 4 0c3,0 5,0 6,2 1,1 2,3 2,5 0,3 -1,5 -2,6 -1,2 -3,2 -6,2l-4 0z"/>
   <path id="3" class="fil1" d="M608 401l4 0 -2 -7 -2 7zm-5 6l5 -15 4 0 5 15 -3 0 -1 -3 -6 0 -1 3 -3 0z"/>
   <polygon id="4" class="fil1" points="621,407 621,401 616,392 620,392 623,398 626,392 628,392 624,401 624,407 "/>
   <rect class="fil2" x="434" y="398" width="123.637" height="2.72318"/>
  </g>
 </g>
</svg>
