<?xml version="1.0" encoding="UTF-8"?>
<!DOCTYPE svg PUBLIC "-//W3C//DTD SVG 1.1//EN" "http://www.w3.org/Graphics/SVG/1.1/DTD/svg11.dtd">
<!-- Creator: CorelDRAW X7 -->
<svg xmlns="http://www.w3.org/2000/svg" xml:space="preserve" width="5.50398in" height="4.84298in" version="1.1" style="shape-rendering:geometricPrecision; text-rendering:geometricPrecision; image-rendering:optimizeQuality; fill-rule:evenodd; clip-rule:evenodd"
viewBox="0 0 1244 1094"
 xmlns:xlink="http://www.w3.org/1999/xlink">
 <defs>
  <style type="text/css">
   <![CDATA[
    .str0 {stroke:black;stroke-width:1.56928}
    .fil2 {fill:black}
    .fil0 {fill:white}
    .fil1 {fill:black;fill-rule:nonzero}
   ]]>
  </style>
 </defs>
 <g id="Layer_x0020_1">
  <metadata id="CorelCorpID_0Corel-Layer"/>
  <g id="_2432759008048">
   <path class="fil0" d="M0 0l1244 0 0 1094 -1244 0 0 -1094zm171 294c-13,11 -23,14 -38,14 -16,0 -50,-15 -50,-63 0,-38 16,-52 30,-52 10,0 22,6 37,19 3,3 5,4 7,4 7,0 16,-10 16,-20 0,-5 -2,-9 -7,-13 -6,-5 -17,-9 -30,-9 -14,0 -38,5 -61,22 -23,17 -36,43 -36,69 0,39 28,76 77,76 22,0 45,-15 62,-39l-7 -8zm87 -82l0 -38c-22,7 -43,11 -65,13l0 10c17,4 20,6 20,24l0 78c0,22 -4,24 -23,26l0 12 98 0 0 -12c-28,-2 -30,-4 -30,-26l0 -66c6,-14 13,-19 20,-19 6,0 10,2 16,7 3,3 7,4 12,2 9,-4 17,-14 17,-27 0,-12 -10,-22 -24,-22 -13,0 -27,16 -40,38l-1 0zm206 81c-13,10 -26,15 -40,15 -25,0 -46,-19 -48,-58 35,-1 78,-5 85,-5 8,-1 10,-6 10,-13 1,-30 -25,-58 -58,-58 -19,0 -39,10 -55,26 -15,14 -26,37 -26,64 0,42 26,77 74,77 14,0 42,-7 64,-40l-6 -8zm-58 -104c14,0 22,18 22,36 -1,6 -3,7 -8,7 -15,1 -28,1 -42,1 2,-28 14,-44 28,-44zm241 132l-4 -12c-4,2 -8,3 -12,3 -6,0 -12,-5 -12,-21l0 -59c0,-20 -3,-36 -18,-47 -10,-8 -21,-11 -35,-11 -21,4 -46,16 -60,26 -8,6 -12,10 -12,17 0,9 13,18 22,18 7,0 12,-3 15,-12 3,-12 6,-20 10,-25 4,-4 8,-7 12,-7 13,0 22,13 22,35l0 11c-8,7 -36,16 -57,24 -18,7 -27,16 -27,34 0,22 18,46 48,46 7,0 24,-12 37,-21 2,4 5,9 10,13 4,5 12,8 22,8l39 -20zm-72 -13c-6,5 -10,6 -15,6 -8,0 -21,-7 -21,-27 0,-13 5,-19 16,-25 7,-4 14,-8 20,-11l0 57zm184 15l-3 -12c-6,3 -12,4 -18,4 -8,0 -21,-3 -21,-31l0 -88 33 0c6,-3 7,-14 2,-17l-35 0 0 -52 -5 -3 -40 28 0 27 -14 0 -10 12 1 5 23 0 0 100c0,32 16,45 44,45 2,0 8,-1 14,-4l29 -14zm55 -171c15,0 26,-12 26,-25 0,-15 -11,-25 -26,-25 -13,0 -25,10 -25,25 0,13 12,25 25,25zm49 185l0 -12c-21,-3 -23,-4 -23,-29l0 -122c-20,6 -44,11 -65,13l0 10c17,3 19,4 19,28l0 71c0,25 -2,27 -23,29l0 12 92 0zm176 -158l-64 0 0 11c19,3 21,8 17,20 -8,24 -19,57 -26,73 -6,-15 -19,-49 -27,-74 -5,-13 -3,-15 13,-19l0 -11 -88 0 0 11c17,4 22,8 28,24 18,41 34,82 52,127l13 0c22,-55 39,-98 53,-127 7,-17 12,-20 29,-24l0 -11zm135 114c-12,10 -25,15 -39,15 -26,0 -47,-19 -49,-58 35,-1 79,-5 85,-5 9,-1 11,-6 11,-13 0,-30 -25,-58 -58,-58 -20,0 -39,10 -55,26 -15,14 -27,37 -27,64 0,42 27,77 74,77 15,0 43,-7 65,-40l-7 -8zm-58 -104c14,0 22,18 22,36 0,6 -2,7 -7,7 -15,1 -28,1 -43,1 2,-28 15,-44 28,-44zm-997 389l0 -9c-19,-2 -22,-4 -22,-26l0 -102c0,-22 3,-24 22,-26l0 -9 -79 0 0 9c19,2 22,4 22,26l0 102c0,22 -3,24 -22,26l0 9 79 0zm153 0l0 -8c-14,-2 -16,-3 -16,-19l0 -51c0,-26 -13,-42 -34,-42 -8,0 -13,2 -21,7 -6,4 -11,8 -17,12l0 -20c-15,5 -33,9 -48,10l0 8c13,3 15,4 15,20l0 54c0,18 -2,18 -18,21l0 8 64 0 0 -8c-11,-2 -13,-3 -13,-19l0 -64c7,-6 13,-9 20,-9 10,0 18,6 18,25l0 45c0,19 -1,20 -12,22l0 8 62 0zm150 0l0 -8c-14,-2 -16,-3 -16,-19l0 -51c0,-26 -13,-42 -34,-42 -8,0 -13,2 -21,7 -6,4 -11,8 -16,12l0 -20c-16,5 -33,9 -48,10l0 8c13,3 14,4 14,20l0 54c0,18 -1,18 -18,21l0 8 64 0 0 -8c-11,-2 -12,-3 -12,-19l0 -64c6,-6 13,-9 19,-9 10,0 18,6 18,25l0 45c0,19 -1,20 -12,22l0 8 62 0zm75 -120c-29,0 -63,22 -63,64 0,29 21,60 62,60 31,0 62,-22 62,-64 0,-32 -23,-60 -61,-60zm-3 10c17,0 26,21 26,58 0,39 -11,45 -21,45 -16,0 -27,-26 -27,-58 0,-31 11,-45 22,-45zm199 -7l-48 0 0 9c14,2 15,5 13,14 -6,18 -15,43 -20,55 -4,-11 -13,-37 -20,-56 -4,-9 -2,-11 10,-13l0 -9 -66 0 0 9c13,3 17,5 21,17 13,31 25,61 39,94l10 0c16,-40 29,-72 39,-93 5,-13 8,-16 22,-18l0 -9zm118 105l-2 -8c-3,1 -6,2 -9,2 -5,0 -9,-3 -9,-16l0 -43c0,-15 -2,-27 -14,-35 -7,-6 -15,-8 -26,-8 -15,3 -34,12 -44,19 -6,4 -9,8 -9,12 0,7 10,14 16,14 6,0 10,-2 12,-9 2,-8 4,-15 7,-19 3,-3 6,-4 9,-4 10,0 16,9 16,26l0 8c-6,5 -26,11 -42,17 -14,5 -20,12 -20,26 0,16 13,34 36,34 5,0 17,-9 27,-16 2,3 4,7 7,10 4,3 9,6 16,6l29 -16zm-53 -9c-4,4 -7,5 -11,5 -6,0 -16,-6 -16,-21 0,-9 4,-14 13,-18 5,-3 9,-6 14,-8l0 42zm137 12l-3 -10c-4,2 -9,3 -13,3 -6,0 -15,-2 -15,-23l0 -65 24 0c5,-2 5,-10 2,-13l-26 0 0 -38 -4 -2 -30 21 0 19 -10 0 -8 10 1 3 17 0 0 74c0,24 12,34 33,34 1,0 6,-2 10,-3l22 -10zm40 -128c11,0 20,-8 20,-18 0,-11 -9,-19 -19,-19 -10,0 -19,8 -19,19 0,10 9,18 18,18zm37 137l0 -8c-16,-2 -17,-4 -17,-22l0 -90c-15,4 -33,8 -49,9l0 8c13,2 15,3 15,21l0 52c0,19 -2,20 -17,22l0 8 68 0zm131 -117l-48 0 0 9c14,2 15,5 13,14 -6,18 -15,43 -20,55 -4,-11 -14,-37 -20,-56 -4,-9 -2,-11 10,-13l0 -9 -66 0 0 9c13,3 17,5 21,17 13,31 25,61 39,94l10 0c16,-40 29,-72 39,-93 5,-13 8,-16 22,-18l0 -9zm100 85c-10,8 -19,11 -30,11 -19,0 -34,-14 -36,-43 26,-1 59,-3 64,-4 6,-1 7,-4 7,-9 1,-22 -18,-43 -43,-43 -14,0 -29,7 -41,19 -11,11 -19,28 -19,48 0,30 19,57 55,57 11,0 31,-6 47,-30l-4 -6zm-43 -77c10,0 16,13 16,27 0,4 -2,5 -6,5 -11,0 -20,1 -31,1 1,-21 11,-33 21,-33zm-970 300c-1,-10 -7,-43 -11,-54 -11,-5 -24,-9 -46,-9 -50,0 -80,31 -80,68 0,41 38,59 60,70 30,14 37,26 37,40 0,14 -11,25 -27,25 -29,0 -51,-32 -61,-62l-14 1c0,23 4,56 7,64 10,7 35,16 60,16 40,0 86,-23 86,-70 0,-38 -26,-54 -65,-71 -24,-11 -35,-22 -35,-37 0,-15 12,-25 24,-25 23,0 38,19 51,48l14 -4zm412 153l0 -15c-25,-4 -27,-5 -27,-32l0 -92c0,-49 -22,-77 -64,-77 -14,0 -27,6 -37,13 -12,8 -23,16 -35,25 -8,-22 -28,-38 -54,-38 -14,0 -27,6 -42,15 -10,6 -19,13 -30,21l0 -37c-29,8 -61,15 -83,18l0 14c21,3 24,8 24,35l0 100c0,30 -3,32 -30,35l0 15 112 0 0 -15c-18,-3 -22,-5 -22,-32l0 -117c14,-10 26,-15 37,-15 18,0 33,11 33,45l0 87c0,28 -2,29 -24,32l0 15 110 0 0 -15c-22,-3 -25,-5 -25,-32l0 -97c0,-7 -1,-13 -2,-19 16,-12 28,-15 38,-15 15,0 33,7 33,46l0 82c0,30 -3,32 -24,35l0 15 112 0zm231 -21l-5 -15c-5,2 -11,3 -16,3 -8,0 -15,-6 -15,-28l0 -78c0,-27 -5,-47 -25,-63 -13,-10 -27,-14 -47,-14 -27,5 -61,21 -79,34 -11,8 -17,14 -17,23 0,12 17,24 30,24 10,0 17,-4 20,-17 4,-14 8,-26 14,-33 4,-5 9,-8 15,-8 18,0 29,17 29,47l0 14c-11,9 -47,21 -75,31 -25,9 -37,21 -37,46 0,30 24,61 65,61 9,0 31,-16 49,-28 3,6 6,12 13,18 6,6 16,10 29,10l52 -27zm-96 -16c-8,5 -13,7 -20,7 -11,0 -28,-10 -28,-36 0,-17 7,-25 22,-33 10,-5 18,-10 26,-15l0 77zm199 -129l0 -50c-30,9 -58,14 -87,18l0 13c22,5 26,7 26,31l0 104c0,30 -5,32 -30,35l0 15 130 0 0 -15c-36,-3 -39,-5 -39,-35l0 -88c8,-19 17,-25 26,-25 8,0 14,3 22,10 4,3 8,4 15,2 13,-5 23,-18 23,-35 0,-17 -13,-30 -32,-30 -17,0 -36,21 -53,50l-1 0zm250 149l-5 -17c-8,4 -16,6 -24,6 -10,0 -27,-5 -27,-42l0 -117 44 0c7,-4 8,-18 3,-23l-47 0 0 -69 -7 -3 -53 37 0 35 -20 0 -13 17 3 6 30 0 0 133c0,43 21,60 58,60 3,0 11,-2 19,-5l39 -18z"/>
   <path class="fil1" d="M1001 375l4 0 -2 -7 -2 7zm-5 7l5 -17 4 0 5 17 -3 0 -1 -4 -6 0 -1 4 -3 0z"/>
   <path id="1" class="fil1" d="M1016 372l2 0c1,0 2,0 2,-1 1,0 1,-1 1,-1 0,-1 0,-2 -1,-2 0,-1 -1,-1 -2,-1l-2 0 0 5zm-4 10l0 -17 6 0c2,0 4,0 5,1 1,1 1,2 1,4 0,1 0,3 -1,3 -1,1 -2,2 -4,2l-3 0 0 7 -4 0z"/>
   <path id="2" class="fil1" d="M1031 372l2 0c1,0 2,0 2,-1 1,0 1,-1 1,-1 0,-1 0,-2 -1,-2 0,-1 -1,-1 -2,-1l-2 0 0 5zm-4 10l0 -17 6 0c2,0 4,0 5,1 1,1 1,2 1,4 0,1 0,3 -1,3 -1,1 -2,2 -4,2l-3 0 0 7 -4 0z"/>
   <path id="3" class="fil1" d="M1045 372l3 0c1,0 2,0 2,-1 1,0 1,-1 1,-1 0,-1 0,-2 -1,-2 0,-1 -1,-1 -2,-1l-3 0 0 5zm-3 10l0 -17 6 0c2,0 4,0 5,1 1,1 1,2 1,4 0,1 0,2 0,2 -1,1 -2,2 -3,2l4 8 -3 0 -4 -7 -3 0 0 7 -3 0z"/>
   <path id="4" class="fil1" d="M1060 373c0,2 0,4 1,5 1,1 2,1 3,1 1,0 2,0 3,-1 0,-1 1,-3 1,-5 0,-2 -1,-3 -1,-4 -1,-1 -2,-2 -3,-2 -1,0 -2,1 -3,2 -1,1 -1,2 -1,4zm-3 0c0,-3 0,-5 2,-6 1,-2 3,-3 5,-3 2,0 4,1 5,3 1,1 2,3 2,6 0,3 -1,5 -2,7 -1,1 -3,2 -5,2 -2,0 -4,-1 -5,-2 -2,-2 -2,-4 -2,-7z"/>
   <path id="5" class="fil1" d="M1077 375l4 0 -2 -7 -2 7zm-5 7l5 -17 4 0 5 17 -3 0 -1 -4 -6 0 -1 4 -3 0z"/>
   <path id="6" class="fil1" d="M1097 377l3 0c0,2 -1,3 -2,4 -1,1 -2,1 -4,1 -2,0 -4,-1 -5,-2 -1,-2 -2,-4 -2,-7 0,-3 1,-5 2,-6 1,-2 3,-3 5,-3 2,0 3,1 4,1 1,1 2,2 2,4l-3 1c0,-1 -1,-2 -1,-2 -1,-1 -1,-1 -2,-1 -1,0 -2,1 -3,2 0,1 0,2 0,4 0,2 0,4 0,5 1,1 2,1 3,1 1,0 2,0 2,-1 1,0 1,-1 1,-1z"/>
   <polygon id="7" class="fil1" points="1103,382 1103,365 1106,365 1106,371 1113,371 1113,365 1116,365 1116,382 1113,382 1113,374 1106,374 1106,382 "/>
   <path class="fil1" d="M1011 631l2 0c1,0 2,0 3,-1 0,0 1,-1 1,-2 0,0 -1,-1 -1,-1 -1,-1 -2,-1 -3,-1l-2 0 0 5zm-3 9l0 -17 6 0c2,0 3,1 4,2 1,0 2,2 2,3 0,2 -1,3 -2,4 -1,1 -2,2 -4,2l-3 0 0 6 -3 0z"/>
   <path id="1" class="fil1" d="M1026 631l3 0c1,0 1,0 2,-1 0,0 1,-1 1,-2 0,0 -1,-1 -1,-1 -1,-1 -1,-1 -2,-1l-3 0 0 5zm-3 9l0 -17 5 0c3,0 4,1 5,2 1,0 2,2 2,3 0,2 0,2 -1,3 -1,1 -1,1 -2,2l3 7 -3 0 -3 -6 -3 0 0 6 -3 0z"/>
   <path id="2" class="fil1" d="M1041 632c0,2 0,3 0,4 1,1 2,2 3,2 2,0 3,-1 3,-2 1,-1 1,-2 1,-4 0,-2 0,-3 -1,-5 0,-1 -1,-1 -3,-1 -1,0 -2,0 -3,1 0,2 0,3 0,5zm-4 0c0,-3 1,-5 2,-7 1,-1 3,-2 5,-2 3,0 4,1 6,2 1,2 1,4 1,7 0,3 0,5 -1,6 -2,2 -3,3 -6,3 -2,0 -4,-1 -5,-3 -1,-1 -2,-3 -2,-6z"/>
   <path id="3" class="fil1" d="M1063 635l3 1c0,2 -1,3 -2,4 -1,0 -2,1 -4,1 -2,0 -4,-1 -5,-2 -1,-2 -2,-4 -2,-7 0,-3 1,-5 2,-7 1,-1 3,-2 5,-2 2,0 3,1 4,1 1,1 2,2 2,4l-3 0c0,0 -1,-1 -1,-2 -1,0 -1,0 -2,0 -1,0 -2,0 -3,1 0,1 -1,3 -1,5 0,2 1,3 1,4 1,1 2,2 3,2 1,0 1,0 2,-1 1,0 1,-1 1,-2z"/>
   <polygon id="4" class="fil1" points="1069,640 1069,623 1080,623 1080,626 1072,626 1072,630 1078,630 1078,633 1072,633 1072,638 1080,638 1080,640 "/>
   <path id="5" class="fil1" d="M1082 637l3 -2c0,1 1,2 1,2 1,1 1,1 2,1 1,0 2,0 2,-1 1,0 1,-1 1,-1 0,-1 0,-1 -1,-2 0,0 -1,0 -2,-1 0,0 0,0 0,0 -2,0 -3,-1 -4,-1 0,-1 -1,-1 -1,-2 -1,-1 -1,-1 -1,-2 0,-2 1,-3 2,-4 1,0 2,-1 4,-1 1,0 2,0 3,1 1,1 2,2 3,3l-3 1c-1,-1 -1,-1 -2,-2 0,0 -1,0 -1,0 -1,0 -2,0 -2,0 0,1 -1,1 -1,2 0,0 1,1 3,2 1,0 1,0 2,1 1,0 2,1 3,2 1,0 1,1 1,3 0,1 -1,2 -2,3 -1,1 -2,2 -4,2 -1,0 -3,-1 -4,-1 -1,-1 -2,-2 -2,-3z"/>
   <path id="6" class="fil1" d="M1095 637l3 -2c1,1 1,2 2,2 0,1 1,1 2,1 1,0 1,0 2,-1 0,0 1,-1 1,-1 0,-1 -1,-1 -1,-2 0,0 -1,0 -2,-1 0,0 0,0 0,0 -2,0 -3,-1 -4,-1 -1,-1 -1,-1 -1,-2 -1,-1 -1,-1 -1,-2 0,-2 1,-3 2,-4 1,0 2,-1 4,-1 1,0 2,0 3,1 1,1 2,2 2,3l-3 1c0,-1 0,-1 -1,-2 0,0 -1,0 -2,0 0,0 -1,0 -1,0 -1,1 -1,1 -1,2 0,0 1,1 3,2 1,0 1,0 2,1 1,0 2,1 3,2 0,0 1,1 1,3 0,1 -1,2 -2,3 -1,1 -2,2 -4,2 -2,0 -3,-1 -4,-1 -1,-1 -2,-2 -3,-3z"/>
   <path class="fil1" d="M1008 981l3 -1c1,1 1,1 2,2 0,0 1,0 2,0 1,0 1,0 2,0 0,-1 1,-1 1,-2 0,0 -1,-1 -1,-1 0,-1 -1,-1 -2,-1 0,0 0,0 0,-1 -2,0 -3,-1 -4,-1 -1,-1 -1,-1 -1,-2 -1,0 -1,-1 -1,-2 0,-1 1,-2 2,-3 1,-1 2,-2 4,-2 1,0 2,1 3,1 1,1 2,2 2,3l-3 1c0,-1 0,-1 -1,-1 0,-1 -1,-1 -2,-1 0,0 -1,0 -1,1 -1,0 -1,0 -1,1 0,1 1,2 3,2 1,1 1,1 2,1 1,1 2,1 3,2 0,1 1,2 1,3 0,1 -1,3 -2,4 -1,1 -2,1 -4,1 -2,0 -3,0 -4,-1 -1,-1 -2,-2 -3,-3z"/>
   <path id="1" class="fil1" d="M1033 980l3 0c-1,2 -2,3 -3,4 -1,1 -2,1 -4,1 -2,0 -4,-1 -5,-2 -1,-2 -1,-4 -1,-7 0,-3 0,-5 1,-6 2,-2 3,-3 5,-3 2,0 3,1 4,2 1,0 2,1 2,3l-3 1c0,-1 0,-2 -1,-2 0,-1 -1,-1 -2,-1 -1,0 -2,1 -2,2 -1,1 -1,2 -1,4 0,2 0,4 1,5 0,1 1,1 2,1 1,0 2,0 2,0 1,-1 1,-2 2,-2z"/>
   <polygon id="2" class="fil1" points="1038,985 1038,968 1041,968 1041,974 1048,974 1048,968 1051,968 1051,985 1048,985 1048,977 1041,977 1041,985 "/>
   <polygon id="3" class="fil1" points="1055,985 1055,968 1066,968 1066,970 1058,970 1058,974 1064,974 1064,977 1058,977 1058,982 1066,982 1066,985 "/>
   <path id="4" class="fil1" d="M1072 982l2 0c2,0 3,-1 4,-1 1,-1 1,-3 1,-5 0,-2 0,-3 -1,-4 -1,-1 -2,-2 -4,-2l-2 0 0 12zm-3 3l0 -17 5 0c3,0 5,0 6,2 2,1 2,3 2,6 0,3 0,5 -2,7 -1,1 -3,2 -6,2l-5 0z"/>
   <path id="5" class="fil1" d="M1085 978l0 -10 3 0 0 11c0,1 1,2 1,2 1,1 2,1 3,1 1,0 2,0 2,-1 1,0 1,-1 1,-2l0 -11 3 0 0 11c0,2 0,3 -2,4 -1,2 -2,2 -4,2 -2,0 -4,0 -5,-2 -1,-1 -2,-2 -2,-5z"/>
   <polygon id="6" class="fil1" points="1102,985 1102,968 1105,968 1105,982 1112,982 1112,985 "/>
   <polygon id="7" class="fil1" points="1115,985 1115,968 1126,968 1126,970 1118,970 1118,974 1124,974 1124,977 1118,977 1118,982 1126,982 1126,985 "/>
   <rect class="fil2 str0" x="832" y="371" width="157.397" height="3.93477"/>
   <rect class="fil2 str0" x="843" y="630" width="157.397" height="3.93477"/>
   <rect class="fil2 str0" x="844" y="974" width="157.397" height="3.93477"/>
  </g>
 </g>
</svg>
