<?xml version="1.0" encoding="UTF-8"?>
<!DOCTYPE svg PUBLIC "-//W3C//DTD SVG 1.1//EN" "http://www.w3.org/Graphics/SVG/1.1/DTD/svg11.dtd">
<!-- Creator: CorelDRAW X7 -->
<svg xmlns="http://www.w3.org/2000/svg" xml:space="preserve" width="3.27778in" height="3.52778in" version="1.1" style="shape-rendering:geometricPrecision; text-rendering:geometricPrecision; image-rendering:optimizeQuality; fill-rule:evenodd; clip-rule:evenodd"
viewBox="0 0 1261 1358"
 xmlns:xlink="http://www.w3.org/1999/xlink">
 <defs>
  <style type="text/css">
   <![CDATA[
    .fil0 {fill:white}
    .fil1 {fill:black;fill-rule:nonzero}
   ]]>
  </style>
 </defs>
 <g id="Layer_x0020_1">
  <metadata id="CorelCorpID_0Corel-Layer"/>
  <g id="_2432765529456">
   <path class="fil0" d="M0 0l1261 0 0 1358 -1261 0 0 -1358zm379 475l-119 0 0 13c41,4 43,7 43,35l0 37c0,12 -3,19 -9,22 -5,4 -14,5 -22,5 -65,0 -94,-62 -94,-122 0,-71 41,-114 89,-114 37,0 67,19 76,63l15 -3c-3,-31 -5,-52 -6,-66 -15,-3 -45,-11 -78,-11 -83,0 -156,48 -156,138 0,79 59,132 151,132 32,0 66,-9 90,-15 -2,-10 -3,-23 -3,-37l0 -32c0,-26 3,-28 23,-32l0 -13zm173 74c-14,12 -28,17 -44,17 -28,0 -51,-21 -53,-64 39,-2 87,-6 94,-6 9,-1 12,-7 12,-15 0,-32 -28,-63 -65,-63 -21,0 -43,10 -61,28 -16,16 -29,41 -29,71 0,46 29,85 82,85 16,0 47,-8 71,-44l-7 -9zm-64 -115c15,0 24,20 24,40 0,7 -2,8 -8,8 -16,1 -31,1 -47,1 2,-31 16,-49 31,-49zm211 149l-4 -14c-7,3 -13,5 -20,5 -8,0 -23,-4 -23,-35l0 -98 37 0c6,-3 7,-14 2,-19l-39 0 0 -57 -5 -2 -45 31 0 28 -16 0 -11 15 2 4 25 0 0 111c0,36 18,50 49,50 2,0 9,-1 16,-4l32 -15zm224 15l0 -14c-30,-3 -33,-6 -33,-39l0 -152c0,-34 3,-36 33,-39l0 -14 -119 0 0 14c29,3 33,5 33,39l0 152c0,33 -4,36 -33,39l0 14 119 0zm227 0l0 -13c-20,-3 -23,-4 -23,-29l0 -75c0,-40 -20,-63 -52,-63 -11,0 -19,3 -31,11 -8,5 -16,12 -24,17l0 -29c-24,7 -49,12 -72,15l0 11c19,4 21,6 21,29l0 82c0,27 -2,27 -26,31l0 13 95 0 0 -13c-16,-3 -18,-4 -18,-29l0 -95c10,-8 19,-13 29,-13 14,0 27,9 27,37l0 68c0,28 -2,29 -18,32l0 13 92 0zm-806 230c-2,-25 -4,-60 -4,-77l-10 0c-6,8 -12,10 -23,10l-159 0c-11,0 -16,-1 -23,-10l-9 0c-1,20 -3,49 -5,78l14 0c6,-19 11,-33 17,-40 6,-6 13,-10 46,-10l13 0 0 187c0,34 -4,36 -37,39l0 14 129 0 0 -14c-35,-3 -39,-5 -39,-39l0 -187 18 0c23,0 34,2 41,9 7,7 12,20 17,41l14 -1zm76 11c-44,0 -94,32 -94,96 0,43 30,88 92,88 47,0 92,-31 92,-95 0,-48 -35,-89 -90,-89zm-5 15c25,0 39,31 39,86 0,58 -16,68 -31,68 -25,0 -41,-38 -41,-87 0,-46 16,-67 33,-67zm318 143l-8 -1c-15,-2 -17,-5 -17,-26l0 -129c-26,4 -51,6 -76,7l0 11c24,5 26,6 26,27l0 96c-9,9 -18,11 -29,11 -14,0 -27,-9 -27,-35l0 -57c0,-23 0,-44 1,-60 -25,3 -49,6 -73,7l0 11c20,6 21,7 21,26l0 82c0,35 19,56 52,56 13,0 23,-4 35,-11 9,-6 13,-10 20,-15l0 24 3 2c25,-5 49,-11 72,-14l0 -12zm166 -26c-14,12 -26,16 -42,16 -17,0 -55,-17 -55,-70 0,-42 17,-57 33,-57 11,0 24,6 40,20 4,4 6,5 9,5 7,0 17,-11 17,-22 0,-6 -2,-10 -7,-14 -7,-6 -20,-10 -34,-10 -16,0 -42,5 -68,24 -25,19 -40,47 -40,76 0,43 32,84 86,84 24,0 50,-17 68,-42l-7 -10zm220 48l0 -13c-21,-4 -23,-4 -23,-29l0 -72c0,-44 -20,-66 -55,-66 -19,0 -39,12 -53,26l0 -125c-23,6 -51,12 -72,14l0 12c20,2 22,2 22,26l0 185c0,25 -3,27 -25,29l0 13 94 0 0 -13c-17,-3 -19,-5 -19,-27l0 -100c9,-8 20,-11 29,-11 15,0 29,10 29,41l0 70c0,22 -2,24 -21,27l0 13 94 0z"/>
   <path class="fil1" d="M245 263l5 1c-1,3 -2,5 -4,6 -2,1 -4,2 -7,2 -4,0 -6,-1 -8,-4 -2,-2 -3,-6 -3,-11 0,-5 1,-8 3,-11 2,-3 5,-4 9,-4 2,0 4,1 6,2 2,1 3,3 3,6l-5 1c0,-1 -1,-2 -2,-3 0,-1 -1,-1 -3,-1 -2,0 -3,1 -4,2 -1,2 -2,5 -2,8 0,4 1,6 2,8 1,1 2,2 4,2 2,0 3,0 4,-1 1,-1 2,-2 2,-3z"/>
   <path id="1" class="fil1" d="M257 261c0,2 1,4 1,5 1,1 2,2 3,2 1,0 2,-1 3,-2 1,-1 1,-3 1,-5 0,-2 0,-4 -1,-5 -1,-1 -2,-1 -3,-1 -1,0 -2,0 -3,1 0,1 -1,3 -1,5zm-5 0c0,-3 1,-6 3,-8 1,-2 3,-3 6,-3 3,0 5,1 7,3 1,2 2,5 2,8 0,4 -1,6 -2,8 -2,2 -4,3 -7,3 -3,0 -5,-1 -6,-3 -2,-2 -3,-4 -3,-8z"/>
   <path id="2" class="fil1" d="M274 272l0 -21 4 0 0 2c2,-1 3,-2 4,-2 1,-1 2,-1 3,-1 2,0 3,1 4,2 1,1 2,3 2,5l0 15 -5 0 0 -14c0,-1 0,-2 -1,-3 0,0 -1,-1 -2,-1 0,0 -1,0 -2,1 -1,0 -1,1 -2,2l0 15 -5 0z"/>
   <path id="3" class="fil1" d="M302 265c0,1 0,2 0,2 0,1 1,1 2,1 0,0 0,0 1,0 0,0 0,0 1,0l0 4c-1,0 -2,0 -2,0 -1,0 -2,0 -2,0 -2,0 -3,0 -4,-1 -1,-1 -1,-2 -1,-4l0 -12 -3 0 0 -4 3 0 0 -7 5 0 0 7 4 0 0 4 -4 0 0 10z"/>
   <path id="4" class="fil1" d="M319 261c-2,1 -4,1 -5,2 -1,1 -2,2 -2,3 0,1 1,1 1,2 0,0 1,0 2,0 1,0 1,0 2,0 1,-1 2,-1 2,-2l0 -5zm1 11l-1 -2c0,0 -1,1 -3,1 -1,1 -2,1 -3,1 -2,0 -3,-1 -4,-2 -1,-1 -1,-2 -1,-4 0,-2 1,-4 2,-5 2,-1 5,-2 9,-3l0 -2c0,0 0,-1 0,-1 -1,-1 -2,-1 -2,-1 -1,0 -2,0 -3,1 -1,0 -1,1 -2,1l-3 -2c0,-1 2,-2 3,-3 1,0 3,-1 5,-1 2,0 4,1 5,2 2,1 2,2 2,4l0 13c0,0 0,1 0,1 0,0 1,1 1,2l-5 0z"/>
   <path id="5" class="fil1" d="M341 265l4 2c0,1 -1,3 -3,4 -1,1 -3,1 -5,1 -3,0 -5,-1 -7,-3 -1,-2 -2,-4 -2,-8 0,-3 1,-6 2,-8 2,-2 4,-3 7,-3 2,0 4,1 5,2 1,1 2,2 3,4l-4 2c0,-2 -1,-2 -1,-3 -1,0 -2,-1 -3,-1 -1,0 -2,1 -3,2 -1,1 -1,3 -1,5 0,3 0,4 1,5 1,1 2,2 3,2 1,0 2,0 3,-1 0,0 1,-1 1,-2z"/>
   <path id="6" class="fil1" d="M355 265c0,1 0,2 0,2 0,1 1,1 2,1 0,0 0,0 1,0 0,0 0,0 1,0l0 4c-1,0 -2,0 -2,0 -1,0 -2,0 -2,0 -2,0 -3,0 -4,-1 -1,-1 -1,-2 -1,-4l0 -12 -3 0 0 -4 3 0 0 -7 5 0 0 7 4 0 0 4 -4 0 0 10z"/>
   <path id="7" class="fil1" d="M362 247l0 -5 5 0 0 5 -5 0zm0 25l0 -21 5 0 0 21 -5 0z"/>
   <path id="8" class="fil1" d="M372 272l0 -21 5 0 0 2c1,-1 2,-2 3,-2 1,-1 2,-1 3,-1 2,0 4,1 5,2 1,1 1,3 1,5l0 15 -5 0 0 -14c0,-1 0,-2 0,-3 -1,0 -1,-1 -2,-1 -1,0 -2,0 -2,1 -1,0 -2,1 -3,2l0 15 -5 0z"/>
   <path id="9" class="fil1" d="M399 271c-1,1 -1,1 -1,1 -1,1 -1,1 -1,1 0,1 0,2 1,2 1,0 2,1 3,1 2,0 3,-1 4,-1 1,0 2,-1 2,-2 0,0 -1,-1 -1,-1 0,0 -1,-1 -2,-1l-5 0zm-1 -13c0,1 0,1 1,2 1,1 1,1 3,1 1,0 1,-1 2,-1 1,-1 1,-2 1,-3 0,-1 0,-1 -1,-2 -1,-1 -2,-1 -3,-1 -1,0 -1,0 -2,1 -1,1 -1,1 -1,3zm-2 12c-1,0 -2,-1 -2,-1 -1,-1 -1,-1 -1,-2 0,-1 0,-2 1,-2 1,-1 1,-2 2,-2 -1,-1 -1,-1 -2,-2 0,-1 -1,-2 -1,-4 0,-2 1,-3 3,-5 1,-1 3,-2 5,-2 1,0 2,0 3,1 1,0 2,0 3,1 0,-1 1,-1 1,-2 1,0 2,0 3,0 0,0 0,0 0,0 0,0 0,0 0,0l0 4c0,0 0,0 0,0 0,0 -1,0 -1,0 0,0 0,0 -1,0 0,0 0,0 -1,0 1,1 1,1 1,2 0,0 0,1 0,2 0,2 0,4 -2,5 -1,1 -3,2 -5,2 -1,0 -1,0 -2,0 0,-1 0,-1 -1,-1 0,0 -1,1 -1,1 0,0 0,0 0,1 0,1 1,1 4,1 1,0 1,0 1,0 3,1 5,1 6,2 2,1 2,2 2,4 0,2 -1,3 -2,5 -2,1 -5,1 -8,1 -3,0 -5,0 -6,-1 -2,-1 -3,-2 -3,-4 0,-1 1,-2 1,-2 1,-1 2,-1 3,-2z"/>
   <polygon id="10" class="fil1" points="428,272 428,242 433,242 433,272 "/>
   <path id="11" class="fil1" d="M440 272l0 -21 4 0 0 2c1,-1 3,-2 4,-2 1,-1 2,-1 3,-1 2,0 3,1 4,2 1,1 2,3 2,5l0 15 -5 0 0 -14c0,-1 -1,-2 -1,-3 0,0 -1,-1 -2,-1 -1,0 -1,0 -2,1 -1,0 -2,1 -3,2l0 15 -4 0z"/>
   <path id="12" class="fil1" d="M473 266l0 -10c0,-1 -1,-1 -1,-1 -1,-1 -2,-1 -2,-1 -2,0 -3,1 -4,2 0,1 -1,3 -1,5 0,2 1,4 1,5 1,1 2,2 4,2 0,0 1,0 2,-1 0,0 1,0 1,-1zm1 3c-1,1 -1,2 -2,2 -1,1 -2,1 -3,1 -3,0 -5,-1 -6,-3 -2,-2 -3,-5 -3,-8 0,-3 1,-6 3,-8 1,-2 3,-3 5,-3 1,0 2,0 3,1 1,0 2,1 2,2l0 -11 5 0 0 25c0,0 0,1 0,2 0,1 0,2 1,3l-4 0 -1 -3z"/>
   <path id="13" class="fil1" d="M484 247l0 -5 5 0 0 5 -5 0zm0 25l0 -21 5 0 0 21 -5 0z"/>
   <path id="14" class="fil1" d="M504 261c-2,1 -4,1 -5,2 -1,1 -2,2 -2,3 0,1 1,1 1,2 0,0 1,0 2,0 0,0 1,0 2,0 1,-1 1,-1 2,-2l0 -5zm1 11l-1 -2c-1,0 -2,1 -3,1 -1,1 -2,1 -3,1 -2,0 -3,-1 -4,-2 -1,-1 -2,-2 -2,-4 0,-2 1,-4 3,-5 2,-1 5,-2 9,-3l0 -2c0,0 0,-1 0,-1 -1,-1 -2,-1 -3,-1 -1,0 -1,0 -2,1 -1,0 -2,1 -2,1l-4 -2c1,-1 2,-2 4,-3 1,0 3,-1 4,-1 3,0 5,1 6,2 1,1 2,2 2,4l0 13c0,0 0,1 0,1 0,0 0,1 0,2l-4 0z"/>
   <polygon id="15" class="fil1" points="515,254 517,248 514,248 514,242 520,242 520,248 517,254 "/>
   <path id="16" class="fil1" d="M524 268l3 -3c1,1 1,2 2,2 1,1 2,1 3,1 1,0 1,0 2,0 0,-1 1,-1 1,-2 0,-1 -1,-2 -4,-3 0,0 0,0 0,0 -3,-1 -5,-2 -5,-3 -1,-1 -2,-2 -2,-4 0,-1 1,-3 2,-4 2,-1 3,-2 5,-2 2,0 3,0 4,1 1,1 3,1 4,2l-4 3c0,-1 -1,-1 -2,-1 0,-1 -1,-1 -2,-1 -1,0 -1,0 -2,1 0,0 0,0 0,1 0,1 1,2 3,3 1,0 1,0 1,0 3,1 4,2 5,3 1,1 1,2 1,4 0,2 -1,3 -2,4 -1,1 -3,2 -5,2 -2,0 -4,0 -5,-1 -1,-1 -2,-2 -3,-3z"/>
   <path id="17" class="fil1" d="M561 254l4 0c2,0 3,0 4,-1 1,0 1,-1 1,-2 0,-2 0,-3 -1,-3 -1,-1 -2,-1 -4,-1l-4 0 0 7zm0 13l4 0c2,0 4,0 5,-1 1,-1 1,-2 1,-3 0,-2 0,-3 -1,-3 -1,-1 -3,-1 -4,-1l-5 0 0 8zm-6 5l0 -30 11 0c3,0 6,1 7,2 2,2 3,4 3,6 0,2 0,3 -1,4 -1,1 -2,2 -3,2 1,1 2,2 3,3 1,1 2,3 2,4 0,3 -1,5 -3,7 -2,1 -5,2 -8,2l-11 0z"/>
   <path id="18" class="fil1" d="M585 258l8 0c0,-1 -1,-2 -1,-3 -1,-1 -2,-1 -3,-1 -1,0 -2,0 -3,1 0,1 -1,2 -1,3zm12 9c0,2 -2,3 -3,4 -1,1 -3,1 -5,1 -3,0 -5,-1 -7,-3 -1,-2 -2,-4 -2,-8 0,-3 1,-6 2,-8 2,-2 4,-3 7,-3 3,0 5,1 6,3 2,2 3,5 3,8 0,0 0,0 0,0 0,1 0,1 0,1l-13 0c0,2 0,3 1,4 1,1 2,2 3,2 1,0 2,0 3,-1 0,0 1,-1 2,-2l3 2z"/>
   <path id="19" class="fil1" d="M600 268l3 -3c1,1 2,2 2,2 1,1 2,1 3,1 1,0 1,0 2,0 0,-1 1,-1 1,-2 0,-1 -1,-2 -4,-3 0,0 0,0 0,0 -3,-1 -4,-2 -5,-3 -1,-1 -2,-2 -2,-4 0,-1 1,-3 2,-4 2,-1 3,-2 6,-2 1,0 2,0 3,1 2,1 3,1 4,2l-3 3c-1,-1 -2,-1 -3,-1 0,-1 -1,-1 -2,-1 0,0 -1,0 -2,1 0,0 0,0 0,1 0,1 1,2 3,3 1,0 1,0 1,0 3,1 4,2 5,3 1,1 1,2 1,4 0,2 0,3 -2,4 -1,1 -3,2 -5,2 -2,0 -3,0 -5,-1 -1,-1 -2,-2 -3,-3z"/>
   <path id="20" class="fil1" d="M625 265c0,1 0,2 0,2 0,1 1,1 2,1 0,0 0,0 1,0 0,0 0,0 1,0l0 4c-1,0 -1,0 -2,0 -1,0 -2,0 -2,0 -2,0 -3,0 -4,-1 -1,-1 -1,-2 -1,-4l0 -12 -3 0 0 -4 3 0 0 -7 5 0 0 7 4 0 0 4 -4 0 0 10z"/>
   <path id="21" class="fil1" d="M649 257c0,3 0,6 1,8 1,1 3,2 5,2 2,0 4,-1 5,-2 1,-2 2,-5 2,-8 0,-3 -1,-6 -2,-7 -1,-2 -3,-3 -5,-3 -2,0 -4,1 -5,3 -1,1 -1,4 -1,7zm-6 0c0,-5 1,-8 3,-11 2,-3 5,-4 9,-4 4,0 7,1 9,4 2,3 3,6 3,11 0,5 -1,8 -3,11 -2,3 -5,4 -9,4 -4,0 -7,-1 -9,-4 -2,-3 -3,-6 -3,-11z"/>
   <path id="22" class="fil1" d="M671 272l0 -21 5 0 0 2c1,-1 2,-2 3,-2 1,-1 2,-1 3,-1 2,0 4,1 5,2 1,1 1,3 1,5l0 15 -5 0 0 -14c0,-1 0,-2 0,-3 -1,0 -1,-1 -2,-1 -1,0 -2,0 -2,1 -1,0 -2,1 -3,2l0 15 -5 0z"/>
   <polygon id="23" class="fil1" points="693,272 693,242 698,242 698,272 "/>
   <path id="24" class="fil1" d="M704 247l0 -5 5 0 0 5 -5 0zm0 25l0 -21 5 0 0 21 -5 0z"/>
   <path id="25" class="fil1" d="M714 272l0 -21 5 0 0 2c1,-1 2,-2 3,-2 1,-1 2,-1 3,-1 2,0 3,1 4,2 1,1 2,3 2,5l0 15 -5 0 0 -14c0,-1 0,-2 -1,-3 0,0 -1,-1 -1,-1 -1,0 -2,0 -3,1 0,0 -1,1 -2,2l0 15 -5 0z"/>
   <path id="26" class="fil1" d="M740 258l7 0c0,-1 0,-2 -1,-3 -1,-1 -1,-1 -3,-1 -1,0 -2,0 -2,1 -1,1 -1,2 -1,3zm12 9c-1,2 -2,3 -3,4 -2,1 -4,1 -6,1 -2,0 -5,-1 -6,-3 -2,-2 -2,-4 -2,-8 0,-3 0,-6 2,-8 1,-2 4,-3 6,-3 3,0 5,1 7,3 1,2 2,5 2,8 0,0 0,0 0,0 0,1 0,1 0,1l-13 0c0,2 1,3 2,4 0,1 1,2 3,2 1,0 2,0 2,-1 1,0 2,-1 2,-2l4 2z"/>
   <path id="27" class="fil1" d="M774 267l3 0c3,0 5,-1 7,-3 1,-1 2,-4 2,-7 0,-3 -1,-6 -2,-7 -2,-2 -4,-3 -7,-3l-3 0 0 20zm-5 5l0 -30 9 0c4,0 7,2 10,4 2,3 3,6 3,11 0,5 -1,8 -3,11 -3,2 -6,4 -11,4l-8 0z"/>
   <path id="28" class="fil1" d="M799 258l8 0c0,-1 -1,-2 -1,-3 -1,-1 -2,-1 -3,-1 -1,0 -2,0 -3,1 0,1 -1,2 -1,3zm12 9c0,2 -2,3 -3,4 -1,1 -3,1 -5,1 -3,0 -5,-1 -7,-3 -1,-2 -2,-4 -2,-8 0,-3 1,-6 2,-8 2,-2 4,-3 7,-3 3,0 5,1 6,3 2,2 3,5 3,8 0,0 0,0 0,0 0,1 0,1 0,1l-13 0c0,2 0,3 1,4 1,1 2,2 3,2 1,0 2,0 3,-1 0,0 1,-1 2,-2l3 2z"/>
   <path id="29" class="fil1" d="M815 272l0 -21 5 0 0 2c1,-1 2,-2 3,-2 1,-1 2,-1 3,-1 2,0 4,1 5,2 1,1 1,3 1,5l0 15 -5 0 0 -14c0,-1 0,-2 0,-3 -1,0 -1,-1 -2,-1 -1,0 -2,0 -2,1 -1,0 -2,1 -3,2l0 15 -5 0z"/>
   <path id="30" class="fil1" d="M843 265c0,1 0,2 0,2 1,1 1,1 2,1 0,0 1,0 1,0 0,0 1,0 1,0l0 4c0,0 -1,0 -2,0 0,0 -1,0 -2,0 -2,0 -3,0 -4,-1 -1,-1 -1,-2 -1,-4l0 -12 -3 0 0 -4 3 0 0 -7 5 0 0 7 4 0 0 4 -4 0 0 10z"/>
   <path id="31" class="fil1" d="M861 261c-3,1 -4,1 -5,2 -1,1 -2,2 -2,3 0,1 0,1 1,2 0,0 0,0 1,0 1,0 2,0 3,0 0,-1 1,-1 2,-2l0 -5zm0 11l0 -2c-1,0 -2,1 -3,1 -1,1 -2,1 -3,1 -2,0 -3,-1 -4,-2 -1,-1 -2,-2 -2,-4 0,-2 1,-4 3,-5 2,-1 5,-2 9,-3l0 -2c0,0 0,-1 -1,-1 0,-1 -1,-1 -2,-1 -1,0 -2,0 -3,1 0,0 -1,1 -2,1l-3 -2c1,-1 2,-2 3,-3 2,0 3,-1 5,-1 2,0 4,1 6,2 1,1 2,2 2,4l0 13c0,0 0,1 0,1 0,0 0,1 0,2l-5 0z"/>
   <polygon id="32" class="fil1" points="871,272 871,242 876,242 876,272 "/>
   <polygon id="33" class="fil1" points="895,272 895,242 900,242 900,272 "/>
   <path id="34" class="fil1" d="M907 272l0 -21 4 0 0 2c1,-1 3,-2 4,-2 1,-1 2,-1 3,-1 2,0 3,1 4,2 1,1 1,3 1,5l0 15 -4 0 0 -14c0,-1 -1,-2 -1,-3 0,0 -1,-1 -2,-1 -1,0 -1,0 -2,1 -1,0 -2,1 -3,2l0 15 -4 0z"/>
   <path id="35" class="fil1" d="M927 268l3 -3c1,1 2,2 3,2 0,1 1,1 2,1 1,0 2,0 2,0 1,-1 1,-1 1,-2 0,-1 -1,-2 -3,-3 -1,0 -1,0 -1,0 -2,-1 -4,-2 -5,-3 -1,-1 -1,-2 -1,-4 0,-1 0,-3 2,-4 1,-1 3,-2 5,-2 1,0 3,0 4,1 1,1 2,1 3,2l-3 3c-1,-1 -2,-1 -2,-1 -1,-1 -2,-1 -2,-1 -1,0 -2,0 -2,1 -1,0 -1,0 -1,1 0,1 1,2 3,3 1,0 1,0 2,0 2,1 3,2 4,3 1,1 1,2 1,4 0,2 0,3 -2,4 -1,1 -3,2 -5,2 -2,0 -3,0 -4,-1 -2,-1 -3,-2 -4,-3z"/>
   <path id="36" class="fil1" d="M952 265c0,1 0,2 0,2 1,1 1,1 2,1 0,0 1,0 1,0 0,0 1,0 1,0l0 4c-1,0 -1,0 -2,0 -1,0 -1,0 -2,0 -2,0 -3,0 -4,-1 -1,-1 -1,-2 -1,-4l0 -12 -3 0 0 -4 3 0 0 -7 5 0 0 7 4 0 0 4 -4 0 0 10z"/>
   <path id="37" class="fil1" d="M959 247l0 -5 5 0 0 5 -5 0zm0 25l0 -21 5 0 0 21 -5 0z"/>
   <path id="38" class="fil1" d="M975 265c0,1 0,2 1,2 0,1 0,1 1,1 0,0 1,0 1,0 0,0 1,0 1,0l0 4c0,0 -1,0 -2,0 0,0 -1,0 -2,0 -2,0 -3,0 -4,-1 0,-1 -1,-2 -1,-4l0 -12 -3 0 0 -4 3 0 0 -7 5 0 0 7 4 0 0 4 -4 0 0 10z"/>
   <path id="39" class="fil1" d="M995 269c-1,1 -3,2 -4,2 -1,1 -2,1 -3,1 -2,0 -3,-1 -4,-2 -1,-1 -2,-2 -2,-5l0 -14 5 0 0 13c0,2 1,3 1,3 0,1 1,1 2,1 1,0 1,0 2,-1 1,0 2,-1 2,-1l0 -15 5 0 0 21 -4 0 0 -3z"/>
   <path id="40" class="fil1" d="M1010 265c0,1 0,2 1,2 0,1 0,1 1,1 1,0 1,0 1,0 1,0 1,0 1,0l0 4c0,0 -1,0 -2,0 0,0 -1,0 -2,0 -2,0 -3,0 -4,-1 0,-1 -1,-2 -1,-4l0 -12 -3 0 0 -4 3 0 0 -7 5 0 0 7 4 0 0 4 -4 0 0 10z"/>
   <path id="41" class="fil1" d="M1021 258l8 0c0,-1 -1,-2 -1,-3 -1,-1 -2,-1 -3,-1 -1,0 -2,0 -3,1 0,1 -1,2 -1,3zm12 9c0,2 -2,3 -3,4 -1,1 -3,1 -5,1 -3,0 -5,-1 -7,-3 -1,-2 -2,-4 -2,-8 0,-3 1,-6 2,-8 2,-2 4,-3 7,-3 3,0 5,1 6,3 2,2 3,5 3,8 0,0 0,0 0,0 0,1 0,1 0,1l-13 0c0,2 0,3 1,4 1,1 2,2 3,2 1,0 2,0 3,-1 1,0 1,-1 2,-2l3 2z"/>
  </g>
 </g>
</svg>
