<?xml version="1.0" encoding="UTF-8"?>
<!DOCTYPE svg PUBLIC "-//W3C//DTD SVG 1.1//EN" "http://www.w3.org/Graphics/SVG/1.1/DTD/svg11.dtd">
<!-- Creator: CorelDRAW X7 -->
<svg xmlns="http://www.w3.org/2000/svg" xml:space="preserve" width="14.9879in" height="4.94166in" version="1.1" style="shape-rendering:geometricPrecision; text-rendering:geometricPrecision; image-rendering:optimizeQuality; fill-rule:evenodd; clip-rule:evenodd"
viewBox="0 0 9316 3072"
 xmlns:xlink="http://www.w3.org/1999/xlink">
 <defs>
  <style type="text/css">
   <![CDATA[
    .fil2 {fill:red}
    .fil0 {fill:white}
    .fil1 {fill:red;fill-rule:nonzero}
   ]]>
  </style>
 </defs>
 <g id="Layer_x0020_1">
  <metadata id="CorelCorpID_0Corel-Layer"/>
  <g id="_2432836949616">
   <path class="fil0" d="M0 0l9316 0 0 3072 -9316 0 0 -3072zm6913 541l0 -64c-58,16 -114,32 -162,40l0 26c43,6 51,11 51,60l0 391c0,50 -3,57 -59,61l0 28 242 0 0 -28c-68,-6 -72,-11 -72,-62l0 -111c14,5 33,11 55,11 112,-26 212,-111 212,-239 0,-84 -55,-168 -158,-168 -15,0 -30,6 -48,16l-61 39zm0 32c16,-12 33,-21 56,-21 43,0 97,39 97,147 0,91 -33,150 -81,150 -22,0 -55,-18 -72,-34l0 -242zm471 -32l0 -64c-58,16 -115,32 -162,40l0 26c43,6 51,11 51,60l0 391c0,50 -4,57 -60,61l0 28 243 0 0 -28c-68,-6 -72,-11 -72,-62l0 -111c14,5 33,11 55,11 112,-26 212,-111 212,-239 0,-84 -55,-168 -158,-168 -15,0 -31,6 -48,16l-61 39zm0 32c15,-12 33,-21 56,-21 42,0 97,39 97,147 0,91 -34,150 -82,150 -21,0 -55,-18 -71,-34l0 -242zm-484 858l0 -250c-50,14 -121,27 -165,32l0 26c49,4 53,11 53,62l0 473c60,23 105,32 154,32 127,0 227,-95 227,-223 0,-98 -75,-184 -181,-184 -17,0 -31,5 -56,16l-32 16zm0 31c13,-4 22,-6 36,-6 56,0 112,43 112,154 0,109 -43,162 -90,161 -28,-1 -48,-27 -54,-41 -2,-7 -4,-17 -4,-29l0 -239zm539 -63c-97,0 -208,71 -208,212 0,95 67,195 204,195 102,0 203,-70 203,-211 0,-104 -77,-196 -199,-196zm-12 34c55,0 86,67 86,189 0,128 -35,150 -68,150 -55,0 -89,-85 -89,-192 0,-101 35,-147 71,-147zm480 -34c-97,0 -208,71 -208,212 0,95 67,195 204,195 103,0 203,-70 203,-211 0,-104 -77,-196 -199,-196zm-11 34c55,0 85,67 85,189 0,128 -35,150 -68,150 -55,0 -89,-85 -89,-192 0,-101 35,-147 72,-147zm701 362l0 -28c-31,-5 -46,-13 -73,-44 -28,-34 -104,-137 -127,-176 24,-33 37,-48 61,-71 24,-25 54,-36 109,-46l0 -26 -188 8 0 26c33,5 36,17 26,35 -10,19 -32,54 -51,76 -13,14 -30,29 -50,33l0 -401c-59,17 -122,27 -162,32l0 24c46,6 52,12 52,61l0 403c0,58 -5,59 -57,66l0 28 224 0 0 -28c-51,-7 -57,-9 -57,-66l0 -93c4,0 6,0 6,0 7,0 12,4 20,16 38,62 88,141 113,173l154 -2zm275 -281c-2,-17 -12,-79 -21,-99 -20,-9 -44,-16 -84,-16 -92,0 -147,56 -147,124 0,75 71,109 111,129 55,25 67,47 67,73 0,26 -19,47 -48,47 -54,0 -94,-61 -113,-116l-26 3c1,42 9,103 14,117 17,13 64,30 110,30 73,0 156,-43 156,-129 0,-69 -47,-99 -118,-130 -44,-20 -64,-40 -64,-67 0,-28 22,-47 44,-47 41,0 69,36 93,89l26 -8zm-7644 -636l-372 0 0 42c130,11 136,21 136,108l0 118c0,37 -10,57 -28,68 -16,11 -45,15 -70,15 -203,0 -295,-195 -295,-382 0,-223 129,-357 278,-357 117,0 210,59 241,197l46 -9c-10,-98 -17,-162 -20,-206 -45,-10 -142,-34 -242,-34 -262,0 -491,148 -491,431 0,248 184,412 472,412 101,0 209,-27 283,-46 -6,-32 -7,-72 -7,-117l0 -98c0,-83 7,-88 69,-100l0 -42zm543 232c-43,37 -89,53 -137,53 -88,0 -162,-67 -168,-200 122,-5 273,-17 295,-20 29,-3 36,-20 36,-45 2,-101 -87,-199 -201,-199 -68,0 -136,34 -191,88 -52,51 -91,130 -91,225 0,142 91,265 256,265 51,0 148,-25 224,-137l-23 -30zm-201 -361c49,0 76,64 76,127 -1,21 -7,24 -26,25 -51,1 -97,2 -148,4 8,-99 51,-156 98,-156zm660 467l-12 -43c-21,10 -41,15 -62,15 -26,0 -71,-11 -71,-108l0 -306 114 0c20,-10 22,-46 8,-60l-122 0 0 -180 -17 -7 -140 97 0 90 -50 0 -35 45 6 15 79 0 0 347c0,112 55,156 151,156 9,0 28,-5 51,-13l100 -48zm701 46l0 -43c-92,-9 -103,-17 -103,-122l0 -475c0,-105 11,-114 103,-122l0 -44 -372 0 0 44c92,8 103,17 103,122l0 475c0,105 -11,113 -103,122l0 43 372 0zm712 0l0 -39c-65,-10 -72,-13 -72,-91l0 -234c0,-124 -62,-199 -163,-199 -36,0 -59,11 -96,35 -28,17 -52,37 -77,55l0 -92c-73,21 -154,38 -225,47l0 36c61,11 67,16 67,90l0 257c0,83 -6,84 -83,96l0 39 299 0 0 -39c-51,-9 -58,-13 -58,-90l0 -300c32,-25 61,-38 92,-38 44,0 85,27 85,116l0 211c0,88 -6,92 -58,101l0 39 289 0zm-2523 722c-6,-79 -12,-189 -14,-241l-29 0c-21,24 -39,31 -72,31l-499 0c-35,0 -51,-2 -71,-31l-29 0c-3,64 -10,154 -15,245l44 0c17,-62 33,-105 53,-126 18,-20 41,-33 142,-33l42 0 0 586c0,106 -12,113 -116,122l0 43 404 0 0 -43c-109,-9 -121,-16 -121,-122l0 -586 57 0c72,0 104,7 125,30 22,22 40,63 54,127l45 -2zm237 33c-138,0 -295,102 -295,302 0,135 95,276 290,276 145,0 288,-99 288,-299 0,-148 -109,-279 -283,-279zm-16 49c78,0 121,95 121,268 0,182 -49,213 -96,213 -78,0 -127,-120 -127,-273 0,-143 50,-208 102,-208zm997 445l-27 -2c-45,-5 -52,-17 -52,-82l0 -403c-82,12 -160,18 -237,22l0 36c75,14 79,18 79,82l0 301c-28,27 -56,35 -89,35 -44,0 -86,-29 -86,-109l0 -180c0,-72 2,-135 4,-187 -78,11 -154,18 -229,22l0 36c63,16 68,21 68,80l0 257c0,109 58,176 162,176 39,0 72,-13 108,-37 27,-16 40,-28 62,-46l0 75 10 8c79,-18 154,-34 227,-44l0 -40zm518 -79c-44,38 -80,50 -132,50 -54,0 -171,-54 -171,-219 0,-133 54,-180 104,-180 35,0 73,20 125,65 11,10 19,13 27,13 21,0 54,-32 54,-68 0,-17 -5,-32 -23,-45 -21,-17 -62,-31 -106,-31 -49,0 -131,18 -211,77 -80,59 -125,147 -125,237 0,135 99,264 269,264 75,0 156,-53 213,-134l-24 -29zm689 148l0 -39c-65,-11 -72,-11 -72,-91l0 -227c0,-136 -63,-206 -171,-206 -61,0 -123,38 -165,81l0 -389c-75,18 -163,36 -228,44l0 36c64,8 69,8 69,83l0 578c0,78 -7,83 -78,91l0 39 294 0 0 -39c-52,-9 -57,-18 -57,-86l0 -311c26,-26 59,-35 89,-35 48,0 89,32 89,128l0 218c0,68 -3,77 -63,86l0 39 293 0zm1041 -1185l0 -19c-34,-4 -41,-12 -60,-60 -35,-93 -69,-188 -104,-284l-28 7 -112 281c-18,46 -25,52 -61,56l0 19 122 0 0 -19c-40,-5 -41,-13 -33,-39 7,-22 14,-41 20,-58l104 0c9,22 17,45 22,61 9,24 6,31 -26,36l0 19 156 0zm-162 -145l-85 0c14,-39 28,-78 43,-118l2 0 40 118zm376 80c-20,16 -36,22 -58,22 -24,0 -76,-24 -76,-97 0,-58 24,-79 46,-79 15,0 32,9 55,29 5,4 8,6 12,6 9,0 24,-15 24,-30 0,-8 -3,-15 -10,-20 -9,-8 -27,-14 -47,-14 -21,0 -57,8 -93,34 -35,26 -55,65 -55,104 0,60 44,117 118,117 34,0 69,-24 94,-59l-10 -13zm303 65l0 -17c-29,-5 -32,-5 -32,-40l0 -100c0,-60 -28,-91 -75,-91 -27,0 -54,17 -73,36l0 -171c-33,8 -71,15 -100,19l0 16c28,3 30,3 30,37l0 254c0,34 -3,36 -34,40l0 17 129 0 0 -17c-23,-4 -25,-8 -25,-38l0 -137c12,-11 26,-15 40,-15 21,0 39,14 39,56l0 96c0,30 -2,34 -28,38l0 17 129 0zm90 -282c23,0 40,-17 40,-38 0,-22 -17,-38 -39,-38 -21,0 -39,16 -39,38 0,21 18,38 38,38zm75 282l0 -17c-33,-5 -35,-8 -35,-45l0 -186c-31,9 -67,16 -100,20l0 16c26,4 30,6 30,42l0 108c0,39 -3,41 -35,45l0 17 140 0zm226 -67c-19,16 -39,23 -60,23 -39,0 -71,-29 -74,-88 54,-2 120,-7 130,-8 13,-2 16,-9 16,-20 0,-45 -38,-88 -89,-88 -30,0 -60,15 -84,39 -22,22 -40,57 -40,99 0,63 40,117 113,117 22,0 65,-11 98,-61l-10 -13zm-88 -159c21,0 33,28 33,56 0,9 -3,11 -11,11 -23,1 -43,1 -65,2 3,-44 22,-69 43,-69zm381 -15l-98 0 0 17c30,5 32,12 26,30 -12,38 -30,88 -40,112 -8,-22 -28,-75 -41,-113 -8,-19 -5,-23 20,-29l0 -17 -135 0 0 17c27,6 34,12 44,36 26,63 51,126 78,194l21 0c33,-83 60,-148 80,-193 12,-25 18,-31 45,-37l0 -17zm206 174c-19,16 -39,23 -61,23 -38,0 -70,-29 -73,-88 53,-2 120,-7 130,-8 12,-2 15,-9 15,-20 1,-45 -38,-88 -88,-88 -30,0 -60,15 -84,39 -23,22 -40,57 -40,99 0,63 40,117 113,117 22,0 65,-11 98,-61l-10 -13zm-88 -159c21,0 33,28 33,56 -1,9 -3,11 -12,11 -22,1 -42,1 -64,2 3,-44 22,-69 43,-69zm226 36l0 -58c-34,10 -66,16 -99,21l0 15c25,6 30,8 30,36l0 119c0,34 -6,36 -35,40l0 17 149 0 0 -17c-42,-4 -45,-6 -45,-40l0 -102c9,-21 20,-28 31,-28 9,0 15,4 25,11 3,4 9,5 17,3 14,-6 26,-21 26,-41 0,-18 -14,-34 -36,-34 -20,0 -42,24 -61,58l-2 0zm285 14c-1,-11 -8,-49 -13,-62 -13,-5 -28,-10 -53,-10 -57,0 -91,35 -91,78 0,47 44,68 69,81 34,15 41,29 41,45 0,16 -12,29 -30,29 -33,0 -58,-37 -70,-72l-16 2c0,26 5,64 8,73 11,8 40,19 69,19 46,0 98,-27 98,-81 0,-43 -30,-62 -74,-81 -28,-12 -40,-25 -40,-42 0,-17 13,-29 28,-29 25,0 43,22 57,55l17 -5zm-1835 -411l0 -18c-34,-5 -41,-12 -60,-59 -34,-92 -68,-186 -102,-280l-28 7 -110 276c-18,45 -24,51 -60,56l0 18 120 0 0 -18c-39,-5 -40,-13 -32,-39 6,-21 13,-40 19,-57l103 0c8,22 16,45 22,61 8,23 6,30 -26,35l0 18 154 0zm-160 -143l-84 0c14,-38 28,-76 43,-116l1 0 40 116zm344 -30c-1,-10 -7,-49 -13,-61 -12,-5 -27,-10 -51,-10 -57,0 -91,35 -91,77 0,46 44,67 69,79 33,16 40,29 40,45 0,16 -11,29 -29,29 -33,0 -58,-37 -70,-71l-16 2c1,25 6,63 9,72 11,8 39,18 68,18 45,0 96,-26 96,-80 0,-42 -29,-60 -73,-79 -27,-13 -39,-25 -39,-42 0,-17 13,-29 27,-29 25,0 42,22 57,55l16 -5zm136 -37l0 -39c-36,10 -71,20 -100,25l0 16c26,4 31,6 31,36l0 241c0,31 -2,35 -36,38l0 17 149 0 0 -17c-42,-4 -44,-7 -44,-38l0 -69c8,4 20,7 33,7 69,-16 131,-68 131,-147 0,-51 -34,-104 -97,-104 -9,0 -19,4 -30,11l-37 23zm0 20c9,-7 20,-13 34,-13 26,0 60,24 60,91 0,56 -21,92 -50,92 -14,0 -34,-11 -44,-21l0 -149zm254 -87c22,0 39,-18 39,-38 0,-22 -17,-38 -38,-38 -21,0 -38,16 -38,38 0,20 17,38 37,38zm74 277l0 -17c-32,-4 -35,-7 -35,-44l0 -183c-30,9 -66,16 -98,20l0 15c26,5 30,6 30,42l0 106c0,38 -3,41 -35,44l0 17 138 0zm124 -187l0 -57c-34,10 -65,16 -98,20l0 15c25,6 29,8 29,36l0 117c0,33 -5,36 -34,39l0 17 147 0 0 -17c-41,-3 -44,-6 -44,-39l0 -100c9,-21 19,-28 30,-28 9,0 15,4 24,11 4,4 10,5 17,3 15,-6 26,-21 26,-40 0,-19 -14,-34 -36,-34 -19,0 -40,24 -60,57l-1 0zm353 163l-6 -17c-6,2 -11,4 -18,4 -9,0 -17,-7 -17,-31l0 -89c0,-30 -5,-53 -28,-71 -15,-11 -31,-16 -53,-16 -30,6 -69,25 -89,39 -12,9 -19,16 -19,25 0,14 20,27 34,27 11,0 18,-4 22,-18 4,-17 9,-30 16,-37 5,-7 10,-10 17,-10 20,0 33,19 33,53l0 16c-12,11 -54,24 -85,36 -28,10 -41,23 -41,51 0,33 27,69 72,69 11,0 36,-18 56,-31 3,6 7,13 14,20 7,6 19,11 33,11l59 -31zm-108 -18c-9,6 -15,9 -22,9 -13,0 -33,-12 -33,-42 0,-18 9,-28 26,-36 10,-6 20,-12 29,-17l0 86zm401 42l0 -17c-28,-4 -31,-5 -31,-39l0 -102c0,-53 -27,-86 -71,-86 -15,0 -26,5 -42,15 -12,8 -22,17 -33,24l0 -40c-32,10 -67,17 -97,21l0 15c26,5 29,7 29,40l0 111c0,36 -3,36 -36,41l0 17 129 0 0 -17c-22,-3 -25,-5 -25,-38l0 -131c14,-10 26,-16 40,-16 19,0 37,12 37,50l0 92c0,38 -3,40 -26,43l0 17 126 0zm181 -19l-5 -19c-9,4 -18,6 -27,6 -11,0 -31,-5 -31,-47l0 -132 50 0c9,-5 10,-20 3,-26l-53 0 0 -78 -7 -3 -61 42 0 39 -21 0 -15 19 2 7 34 0 0 150c0,49 24,68 66,68 4,0 12,-2 22,-6l43 -20zm187 -154c-1,-10 -7,-49 -12,-61 -13,-5 -27,-10 -52,-10 -57,0 -90,35 -90,77 0,46 43,67 68,79 33,16 41,29 41,45 0,16 -12,29 -30,29 -33,0 -57,-37 -69,-71l-16 2c0,25 5,63 8,72 11,8 40,18 68,18 45,0 96,-26 96,-80 0,-42 -29,-60 -72,-79 -28,-13 -40,-25 -40,-42 0,-17 13,-29 27,-29 26,0 43,22 57,55l16 -5z"/>
   <path class="fil1" d="M5073 374c0,5 1,9 3,12 2,3 5,4 8,4 4,0 6,-1 8,-4 2,-3 3,-7 3,-12 0,-5 -1,-10 -3,-12 -2,-3 -4,-5 -8,-5 -3,0 -6,2 -8,5 -2,2 -3,7 -3,12zm-9 0c0,-8 2,-14 6,-18 3,-4 8,-7 14,-7 6,0 11,3 15,7 3,4 5,10 5,18 0,8 -2,14 -5,18 -4,4 -9,6 -15,6 -6,0 -11,-2 -14,-6 -4,-4 -6,-10 -6,-18z"/>
   <path id="1" class="fil1" d="M5111 398l0 -48 10 0 14 24c1,2 2,4 3,6 1,1 1,3 2,5 0,-1 0,-3 0,-4 -1,-2 -1,-4 -1,-5l0 -26 9 0 0 48 -9 0 -14 -25c-1,-1 -2,-3 -3,-5 -1,-2 -2,-4 -3,-6 0,1 1,2 1,4 0,1 0,3 0,5l0 27 -9 0z"/>
   <path id="2" class="fil1" d="M5183 383l9 3c-2,4 -4,7 -7,9 -3,2 -6,3 -11,3 -6,0 -11,-2 -14,-6 -3,-4 -5,-10 -5,-18 0,-8 2,-14 5,-18 4,-4 9,-7 15,-7 4,0 7,2 10,4 3,2 5,5 6,9l-9 2c0,-2 -1,-4 -3,-5 -1,-1 -3,-2 -5,-2 -3,0 -6,1 -7,4 -2,3 -3,7 -3,13 0,6 1,10 3,12 1,3 4,4 7,4 3,0 4,0 6,-1 2,-2 3,-3 3,-6z"/>
   <polygon id="3" class="fil1" points="5199,398 5199,350 5230,350 5230,358 5208,358 5208,369 5224,369 5224,377 5208,377 5208,390 5231,390 5231,398 "/>
   <polygon class="fil1" points="6072,991 6072,951 6060,951 6060,943 6094,943 6094,951 6081,951 6081,991 "/>
   <path id="1" class="fil1" d="M6106 967c0,5 1,10 3,12 2,3 5,4 8,4 4,0 6,-1 8,-4 2,-2 3,-7 3,-12 0,-5 -1,-9 -3,-12 -2,-3 -4,-5 -8,-5 -3,0 -6,2 -8,5 -2,3 -3,7 -3,12zm-9 0c0,-8 2,-14 6,-18 3,-4 8,-6 14,-6 6,0 11,2 15,6 3,4 5,10 5,18 0,8 -2,14 -5,18 -4,4 -9,7 -15,7 -6,0 -11,-3 -14,-7 -4,-4 -6,-10 -6,-18z"/>
   <path id="2" class="fil1" d="M6154 983l4 0c5,0 9,-1 11,-4 2,-2 3,-7 3,-12 0,-6 -1,-10 -3,-12 -2,-3 -6,-4 -11,-4l-4 0 0 32zm-9 8l0 -48 14 0c8,0 13,2 17,6 4,4 5,10 5,18 0,8 -1,14 -5,18 -4,4 -10,6 -17,6l-14 0z"/>
   <path id="3" class="fil1" d="M6197 973l12 0 -6 -22 -6 22zm-14 18l15 -48 11 0 14 48 -9 0 -3 -11 -16 0 -3 11 -9 0z"/>
   <polygon id="4" class="fil1" points="6236,991 6236,972 6222,943 6232,943 6241,963 6250,943 6259,943 6245,972 6245,991 "/>
   <rect class="fil2" x="5512" y="962" width="465.875" height="10.2612"/>
   <polygon class="fil1" points="7061,1912 7061,1866 7069,1866 7069,1884 7087,1884 7087,1866 7095,1866 7095,1912 7087,1912 7087,1892 7069,1892 7069,1912 "/>
   <polygon id="1" class="fil1" points="7106,1912 7106,1866 7135,1866 7135,1873 7114,1873 7114,1884 7130,1884 7130,1891 7114,1891 7114,1904 7136,1904 7136,1912 "/>
   <path id="2" class="fil1" d="M7152 1894l11 0 -6 -20 -5 20zm-14 18l14 -46 11 0 14 46 -9 0 -3 -11 -15 0 -3 11 -9 0z"/>
   <path id="3" class="fil1" d="M7191 1886l7 0c3,0 5,-1 6,-2 2,-1 2,-2 2,-5 0,-2 0,-3 -2,-4 -1,-2 -3,-2 -6,-2l-7 0 0 13zm-9 26l0 -46 16 0c5,0 10,1 13,3 2,2 4,6 4,10 0,3 -1,6 -2,8 -2,2 -4,3 -7,4l11 21 -10 0 -9 -19 -7 0 0 19 -9 0z"/>
   <polygon id="4" class="fil1" points="7232,1912 7232,1873 7220,1873 7220,1866 7253,1866 7253,1873 7241,1873 7241,1912 "/>
   <polygon id="5" class="fil1" points="7287,1912 7287,1873 7275,1873 7275,1866 7307,1866 7307,1873 7295,1873 7295,1912 "/>
   <polygon id="6" class="fil1" points="7314,1912 7314,1866 7322,1866 7322,1884 7340,1884 7340,1866 7348,1866 7348,1912 7340,1912 7340,1892 7322,1892 7322,1912 "/>
   <path id="7" class="fil1" d="M7367 1886l8 0c2,0 4,-1 6,-2 1,-1 2,-2 2,-5 0,-2 -1,-3 -2,-4 -2,-2 -4,-2 -6,-2l-8 0 0 13zm-8 26l0 -46 15 0c6,0 10,1 13,3 3,2 4,6 4,10 0,3 0,6 -2,8 -1,2 -3,3 -6,4l10 21 -9 0 -9 -19 -8 0 0 19 -8 0z"/>
   <path id="8" class="fil1" d="M7407 1889c0,5 1,9 2,12 2,2 5,4 8,4 3,0 6,-2 8,-4 1,-3 2,-7 2,-12 0,-5 -1,-9 -2,-12 -2,-3 -5,-4 -8,-4 -3,0 -6,1 -8,4 -1,3 -2,7 -2,12zm-9 0c0,-8 2,-13 5,-18 3,-4 8,-6 14,-6 6,0 10,2 14,6 3,5 5,10 5,18 0,7 -2,13 -5,17 -4,4 -8,6 -14,6 -6,0 -11,-2 -14,-6 -3,-4 -5,-10 -5,-17z"/>
   <path id="9" class="fil1" d="M7451 1884l8 0c2,0 4,0 6,-1 1,-1 2,-3 2,-5 0,-2 -1,-3 -2,-4 -2,-1 -4,-1 -7,-1l-7 0 0 11zm0 20l8 0c3,0 5,0 6,-1 2,-1 2,-3 2,-5 0,-3 0,-4 -2,-5 -1,-2 -3,-2 -6,-2l-8 0 0 13zm-8 8l0 -46 17 0c5,0 8,1 11,3 3,2 4,5 4,9 0,2 -1,4 -2,6 -1,1 -2,2 -5,4 3,0 5,2 6,4 1,1 2,4 2,7 0,4 -1,7 -4,9 -3,2 -7,4 -13,4l-16 0z"/>
   <path id="10" class="fil1" d="M7510 1889c0,5 1,9 3,12 1,2 4,4 7,4 4,0 6,-2 8,-4 2,-3 3,-7 3,-12 0,-5 -1,-9 -3,-12 -2,-3 -4,-4 -8,-4 -3,0 -6,1 -7,4 -2,3 -3,7 -3,12zm-9 0c0,-8 2,-13 5,-18 4,-4 8,-6 14,-6 6,0 11,2 14,6 4,5 5,10 5,18 0,7 -1,13 -5,17 -3,4 -8,6 -14,6 -6,0 -10,-2 -14,-6 -3,-4 -5,-10 -5,-17z"/>
   <polygon id="11" class="fil1" points="7547,1912 7547,1866 7576,1866 7576,1873 7555,1873 7555,1884 7571,1884 7571,1891 7555,1891 7555,1912 "/>
   <polygon id="12" class="fil1" points="7602,1912 7602,1866 7631,1866 7631,1873 7610,1873 7610,1884 7626,1884 7626,1891 7610,1891 7610,1904 7632,1904 7632,1912 "/>
   <polygon id="13" class="fil1" points="7648,1912 7635,1866 7643,1866 7654,1903 7664,1866 7673,1866 7659,1912 "/>
   <polygon id="14" class="fil1" points="7678,1912 7678,1866 7708,1866 7708,1873 7687,1873 7687,1884 7702,1884 7702,1891 7687,1891 7687,1904 7709,1904 7709,1912 "/>
   <path id="15" class="fil1" d="M7724 1886l8 0c3,0 5,-1 6,-2 1,-1 2,-2 2,-5 0,-2 -1,-3 -2,-4 -1,-2 -3,-2 -6,-2l-8 0 0 13zm-8 26l0 -46 16 0c5,0 10,1 12,3 3,2 5,6 5,10 0,3 -1,6 -2,8 -2,2 -4,3 -7,4l10 21 -9 0 -9 -19 -8 0 0 19 -8 0z"/>
   <polygon id="16" class="fil1" points="7765,1912 7765,1893 7752,1866 7761,1866 7770,1885 7779,1866 7787,1866 7774,1893 7774,1912 "/>
   <path id="17" class="fil1" d="M7811 1912l0 -46 13 0 6 22c1,2 1,4 2,6 0,2 1,4 1,5 0,-1 1,-3 1,-5 0,-2 1,-4 2,-6l6 -22 12 0 0 46 -7 0 0 -39c0,2 -1,4 -1,5 -1,2 -1,4 -2,5l-8 29 -6 0 -9 -29c0,-3 -1,-5 -1,-6 -1,-2 -1,-3 -1,-4l0 39 -8 0z"/>
   <path id="18" class="fil1" d="M7873 1904l5 0c5,0 8,-1 10,-4 2,-2 3,-6 3,-12 0,-5 -1,-9 -3,-11 -2,-2 -6,-4 -10,-4l-5 0 0 31zm-8 8l0 -46 14 0c7,0 12,2 16,5 3,4 5,10 5,17 0,8 -2,14 -5,18 -4,4 -9,6 -17,6l-13 0z"/>
   <path id="19" class="fil1" d="M7904 1901l8 -3c1,2 3,4 4,5 2,1 3,2 5,2 3,0 5,-1 6,-2 1,-1 2,-2 2,-4 0,-2 -1,-3 -2,-4 -1,-1 -2,-2 -5,-2 0,-1 -1,-1 -1,-1 -5,-2 -8,-3 -10,-4 -2,-1 -3,-3 -4,-4 -1,-2 -1,-4 -1,-6 0,-4 1,-7 4,-9 3,-3 6,-4 11,-4 4,0 7,1 10,3 2,1 4,4 5,7l-8 3c-1,-2 -2,-3 -3,-4 -1,-1 -3,-2 -5,-2 -2,0 -3,1 -4,2 -1,0 -2,2 -2,3 0,2 3,5 8,7 2,0 3,1 4,1 4,2 7,4 9,6 1,2 2,4 2,8 0,4 -1,7 -4,10 -3,2 -7,3 -11,3 -5,0 -8,-1 -11,-3 -3,-1 -5,-4 -7,-8z"/>
   <path id="20" class="fil1" d="M7972 1894l12 0 -6 -20 -6 20zm-13 18l14 -46 10 0 14 46 -8 0 -3 -11 -16 0 -3 11 -8 0z"/>
   <path id="21" class="fil1" d="M7999 1901l8 -3c1,2 3,4 4,5 2,1 3,2 5,2 3,0 4,-1 6,-2 1,-1 2,-2 2,-4 0,-2 -1,-3 -2,-4 -1,-1 -2,-2 -5,-2 0,-1 -1,-1 -2,-1 -4,-2 -7,-3 -9,-4 -2,-1 -3,-3 -4,-4 -1,-2 -1,-4 -1,-6 0,-4 1,-7 4,-9 3,-3 6,-4 11,-4 4,0 7,1 9,3 3,1 5,4 6,7l-8 3c-1,-2 -2,-3 -3,-4 -1,-1 -3,-2 -5,-2 -2,0 -3,1 -4,2 -2,0 -2,2 -2,3 0,2 3,5 8,7 1,0 3,1 4,1 4,2 7,4 9,6 1,2 2,4 2,8 0,4 -1,7 -4,10 -3,2 -7,3 -12,3 -4,0 -7,-1 -10,-3 -3,-1 -5,-4 -7,-8z"/>
   <path id="22" class="fil1" d="M8048 1886l7 0c3,0 5,-1 6,-2 2,-1 2,-2 2,-5 0,-2 0,-4 -2,-5 -1,-1 -3,-1 -6,-1l-7 0 0 13zm-9 26l0 -46 17 0c5,0 9,1 12,3 3,2 4,6 4,10 0,5 -1,8 -4,11 -3,2 -6,3 -11,3l-9 0 0 19 -9 0z"/>
   <polygon id="23" class="fil1" points="8080,1912 8080,1866 8089,1866 8089,1912 "/>
   <path id="24" class="fil1" d="M8108 1886l8 0c3,0 5,-1 6,-2 1,-1 2,-2 2,-5 0,-2 -1,-3 -2,-4 -1,-2 -3,-2 -6,-2l-8 0 0 13zm-8 26l0 -46 16 0c5,0 10,1 12,3 3,2 5,6 5,10 0,3 -1,6 -2,8 -2,2 -4,3 -7,4l10 21 -9 0 -9 -19 -8 0 0 19 -8 0z"/>
   <path id="25" class="fil1" d="M8150 1894l12 0 -6 -20 -6 20zm-13 18l14 -46 11 0 14 46 -9 0 -3 -11 -16 0 -3 11 -8 0z"/>
   <path id="26" class="fil1" d="M8181 1912l0 -46 9 0 13 23c1,2 2,3 3,5 1,2 2,4 2,6 0,-2 0,-3 0,-5 0,-1 0,-3 0,-5l0 -24 8 0 0 46 -8 0 -15 -24c0,-1 -1,-3 -2,-5 -1,-2 -2,-4 -3,-6 0,1 1,3 1,4 0,2 0,3 0,5l0 26 -8 0z"/>
   <polygon id="27" class="fil1" points="8234,1912 8234,1873 8222,1873 8222,1866 8255,1866 8255,1873 8243,1873 8243,1912 "/>
   <polygon class="fil1" points="7315,402 7315,356 7323,356 7323,377 7339,356 7348,356 7335,373 7350,402 7341,402 7330,380 7323,389 7323,402 "/>
   <polygon id="1" class="fil1" points="7357,402 7357,356 7386,356 7386,364 7365,364 7365,375 7381,375 7381,382 7365,382 7365,394 7387,394 7387,402 "/>
   <polygon id="2" class="fil1" points="7403,402 7403,384 7389,356 7398,356 7407,375 7416,356 7424,356 7411,384 7411,402 "/>
   <polygon id="3" class="fil1" points="7449,402 7449,356 7478,356 7478,364 7457,364 7457,375 7473,375 7473,382 7457,382 7457,402 "/>
   <path id="4" class="fil1" d="M7490 379c0,6 1,9 3,12 2,3 4,4 8,4 3,0 5,-1 7,-4 2,-3 3,-6 3,-12 0,-5 -1,-9 -3,-12 -2,-2 -4,-4 -7,-4 -4,0 -6,2 -8,4 -2,3 -3,7 -3,12zm-9 0c0,-7 2,-13 6,-17 3,-4 8,-6 14,-6 5,0 10,2 13,6 4,4 6,10 6,17 0,8 -2,13 -6,18 -3,4 -8,6 -13,6 -6,0 -11,-2 -14,-6 -4,-5 -6,-10 -6,-18z"/>
   <path id="5" class="fil1" d="M7535 376l8 0c3,0 5,0 6,-1 1,-1 2,-3 2,-5 0,-2 -1,-4 -2,-5 -1,-1 -3,-1 -6,-1l-8 0 0 12zm-8 26l0 -46 15 0c6,0 11,1 13,4 3,2 5,5 5,10 0,3 -1,5 -3,7 -1,2 -3,4 -6,5l10 20 -9 0 -9 -18 -8 0 0 18 -8 0z"/>
   <path id="6" class="fil1" d="M7594 379c0,6 1,9 3,12 1,3 4,4 7,4 4,0 6,-1 8,-4 2,-3 3,-6 3,-12 0,-5 -1,-9 -3,-12 -2,-2 -4,-4 -8,-4 -3,0 -6,2 -7,4 -2,3 -3,7 -3,12zm-9 0c0,-7 2,-13 5,-17 4,-4 8,-6 14,-6 6,0 11,2 14,6 4,4 5,10 5,17 0,8 -1,13 -5,18 -3,4 -8,6 -14,6 -6,0 -10,-2 -14,-6 -3,-5 -5,-10 -5,-18z"/>
   <path id="7" class="fil1" d="M7631 385l0 -29 8 0 0 30c0,3 1,6 2,7 2,2 4,2 7,2 3,0 6,0 7,-2 1,-1 2,-4 2,-7l0 -30 8 0 0 31c0,5 -1,9 -4,12 -3,2 -7,4 -13,4 -6,0 -10,-2 -13,-4 -3,-3 -4,-8 -4,-14z"/>
   <path id="8" class="fil1" d="M7684 376l8 0c2,0 4,0 6,-1 1,-1 2,-3 2,-5 0,-2 -1,-4 -2,-5 -2,-1 -4,-1 -6,-1l-8 0 0 12zm-8 26l0 -46 15 0c6,0 10,1 13,4 3,2 4,5 4,10 0,3 0,5 -2,7 -1,2 -3,4 -6,5l10 20 -9 0 -9 -18 -8 0 0 18 -8 0z"/>
   <path id="9" class="fil1" d="M7733 392l8 -4c1,3 3,5 4,6 2,1 3,1 5,1 3,0 5,0 6,-1 1,-1 2,-3 2,-4 0,-2 -1,-3 -2,-4 -1,-1 -2,-2 -5,-3 0,0 -1,0 -1,0 -5,-2 -8,-3 -10,-5 -2,-1 -3,-2 -4,-4 -1,-2 -1,-4 -1,-6 0,-3 1,-6 4,-9 3,-2 6,-3 11,-3 4,0 7,1 9,2 3,2 5,5 6,8l-8 3c-1,-2 -2,-4 -3,-5 -1,-1 -3,-1 -5,-1 -2,0 -3,0 -4,1 -1,1 -2,2 -2,4 0,2 3,4 8,6 2,1 3,1 4,2 4,2 7,4 9,6 1,1 2,4 2,7 0,4 -1,8 -4,10 -3,3 -7,4 -11,4 -5,0 -8,-1 -11,-3 -3,-2 -5,-5 -7,-8z"/>
   <path id="10" class="fil1" d="M7774 385l0 -29 8 0 0 30c0,3 1,6 2,7 2,2 4,2 7,2 3,0 5,0 7,-2 1,-1 2,-4 2,-7l0 -30 8 0 0 31c0,5 -1,9 -4,12 -3,2 -7,4 -13,4 -6,0 -10,-2 -13,-4 -3,-3 -4,-8 -4,-14z"/>
   <path id="11" class="fil1" d="M7843 388l8 3c-2,4 -4,7 -6,9 -3,2 -7,3 -11,3 -6,0 -11,-2 -14,-6 -3,-4 -4,-10 -4,-18 0,-7 1,-13 5,-17 3,-4 7,-6 13,-6 4,0 8,1 10,3 3,2 5,5 6,9l-8 2c-1,-3 -2,-4 -3,-5 -1,-1 -3,-2 -5,-2 -3,0 -6,1 -7,4 -2,3 -3,7 -3,13 0,5 1,9 3,11 1,3 4,4 7,4 2,0 4,0 5,-2 2,-1 3,-2 4,-5z"/>
   <path id="12" class="fil1" d="M7882 388l8 3c-2,4 -4,7 -7,9 -2,2 -6,3 -10,3 -6,0 -11,-2 -14,-6 -3,-4 -4,-10 -4,-18 0,-7 1,-13 4,-17 4,-4 8,-6 14,-6 4,0 8,1 10,3 3,2 5,5 6,9l-8 2c-1,-3 -2,-4 -3,-5 -2,-1 -3,-2 -5,-2 -3,0 -6,1 -7,4 -2,3 -3,7 -3,13 0,5 1,9 3,11 1,3 4,4 7,4 2,0 4,0 5,-2 2,-1 3,-2 4,-5z"/>
   <polygon id="13" class="fil1" points="7897,402 7897,356 7926,356 7926,364 7905,364 7905,375 7921,375 7921,382 7905,382 7905,394 7927,394 7927,402 "/>
   <path id="14" class="fil1" d="M7931 392l8 -4c1,3 2,5 4,6 1,1 3,1 5,1 2,0 4,0 5,-1 2,-1 2,-3 2,-4 0,-2 0,-3 -1,-4 -1,-1 -3,-2 -5,-3 -1,0 -1,0 -2,0 -4,-2 -8,-3 -9,-5 -2,-1 -3,-2 -4,-4 -1,-2 -2,-4 -2,-6 0,-3 2,-6 4,-9 3,-2 7,-3 11,-3 4,0 7,1 10,2 3,2 4,5 6,8l-8 3c-1,-2 -2,-4 -4,-5 -1,-1 -2,-1 -4,-1 -2,0 -4,0 -5,1 -1,1 -1,2 -1,4 0,2 2,4 8,6 1,1 2,1 3,2 5,2 8,4 9,6 2,1 3,4 3,7 0,4 -2,8 -4,10 -3,3 -7,4 -12,4 -4,0 -8,-1 -11,-3 -2,-2 -5,-5 -6,-8z"/>
   <path id="15" class="fil1" d="M7968 392l8 -4c1,3 2,5 4,6 1,1 3,1 5,1 2,0 4,0 5,-1 2,-1 2,-3 2,-4 0,-2 0,-3 -1,-4 -1,-1 -3,-2 -6,-3 0,0 0,0 -1,0 -4,-2 -8,-3 -9,-5 -2,-1 -3,-2 -4,-4 -1,-2 -2,-4 -2,-6 0,-3 2,-6 4,-9 3,-2 7,-3 11,-3 4,0 7,1 10,2 2,2 4,5 6,8l-8 3c-1,-2 -2,-4 -4,-5 -1,-1 -3,-1 -4,-1 -2,0 -4,0 -5,1 -1,1 -2,2 -2,4 0,2 3,4 8,6 2,1 3,1 4,2 5,2 8,4 9,6 2,1 3,4 3,7 0,4 -2,8 -5,10 -2,3 -6,4 -11,4 -4,0 -8,-1 -11,-3 -3,-2 -5,-5 -6,-8z"/>
  </g>
 </g>
</svg>
