<?xml version="1.0" encoding="UTF-8"?>
<!DOCTYPE svg PUBLIC "-//W3C//DTD SVG 1.1//EN" "http://www.w3.org/Graphics/SVG/1.1/DTD/svg11.dtd">
<!-- Creator: CorelDRAW X7 -->
<svg xmlns="http://www.w3.org/2000/svg" xml:space="preserve" width="5.50398in" height="4.84298in" version="1.1" style="shape-rendering:geometricPrecision; text-rendering:geometricPrecision; image-rendering:optimizeQuality; fill-rule:evenodd; clip-rule:evenodd"
viewBox="0 0 1261 1110"
 xmlns:xlink="http://www.w3.org/1999/xlink">
 <defs>
  <style type="text/css">
   <![CDATA[
    .fil0 {fill:white}
    .fil1 {fill:black;fill-rule:nonzero}
   ]]>
  </style>
 </defs>
 <g id="Layer_x0020_1">
  <metadata id="CorelCorpID_0Corel-Layer"/>
  <g id="_2432843972544">
   <path class="fil0" d="M0 0l1261 0 0 1110 -1261 0 0 -1110zm327 321c-8,21 -15,34 -23,43 -10,11 -25,14 -42,14 -13,0 -24,-1 -31,-4 -9,-4 -11,-11 -11,-31l0 -160c0,-36 4,-38 36,-41l0 -15 -126 0 0 15c31,3 35,5 35,41l0 158c0,34 -4,37 -40,40l0 14 201 0c3,-11 12,-52 15,-69l-14 -5zm191 24c-14,12 -29,17 -46,17 -29,0 -53,-22 -55,-66 40,-2 91,-6 98,-7 9,-1 12,-6 12,-15 0,-33 -29,-66 -67,-66 -23,0 -45,11 -63,29 -18,17 -31,44 -31,75 0,48 31,88 85,88 17,0 50,-8 75,-45l-8 -10zm-67 -120c17,0 26,21 26,42 -1,7 -3,8 -9,8 -17,1 -32,1 -49,1 2,-32 17,-51 32,-51zm220 155l-4 -14c-7,3 -14,5 -21,5 -8,0 -23,-4 -23,-36l0 -102 38 0c6,-3 7,-15 2,-20l-40 0 0 -60 -6 -2 -47 32 0 30 -16 0 -12 15 2 5 26 0 0 115c0,37 19,52 51,52 2,0 9,-1 17,-4l33 -16zm35 -277c-11,0 -23,9 -23,20 0,10 4,14 6,15 17,3 29,14 29,29 0,16 -12,29 -35,39l5 15c32,-9 67,-30 67,-67 0,-32 -28,-51 -49,-51zm168 160c0,-9 -5,-38 -10,-47 -9,-5 -20,-8 -39,-8 -43,0 -69,26 -69,59 0,35 33,51 52,61 25,12 31,22 31,34 0,12 -9,22 -22,22 -26,0 -45,-28 -54,-54l-12 1c0,20 4,49 7,55 8,7 30,14 52,14 34,0 73,-20 73,-61 0,-32 -22,-46 -55,-61 -21,-9 -31,-19 -31,-32 0,-13 10,-22 21,-22 20,0 33,17 44,42l12 -3zm-596 399c-15,12 -27,17 -44,17 -18,0 -57,-19 -57,-74 0,-44 18,-59 34,-59 12,0 25,6 42,21 4,3 6,5 9,5 7,0 18,-11 18,-23 0,-6 -2,-11 -8,-15 -7,-6 -20,-10 -35,-10 -16,0 -43,6 -70,25 -27,20 -42,49 -42,79 0,45 33,88 90,88 25,0 52,-18 71,-44l-8 -10zm121 -138c-46,0 -98,34 -98,100 0,45 32,92 96,92 49,0 96,-33 96,-99 0,-50 -36,-93 -94,-93zm-5 16c26,0 40,32 40,89 0,61 -16,71 -32,71 -26,0 -42,-40 -42,-91 0,-47 16,-69 34,-69zm221 171l0 -13c-25,-3 -28,-5 -28,-32l0 -245c-23,7 -53,12 -77,15l0 12c23,3 25,4 25,29l0 189c0,26 -3,28 -27,32l0 13 107 0zm119 0l0 -13c-26,-3 -28,-5 -28,-32l0 -245c-23,7 -54,12 -77,15l0 12c23,3 25,4 25,29l0 189c0,26 -3,28 -27,32l0 13 107 0zm197 -18l-4 -14c-5,2 -9,4 -14,4 -7,0 -14,-6 -14,-25l0 -68c0,-23 -3,-41 -21,-54 -11,-8 -23,-12 -40,-12 -24,4 -53,18 -69,29 -9,7 -14,12 -14,20 0,11 15,21 25,21 9,0 15,-4 18,-14 3,-13 7,-23 12,-29 3,-5 8,-7 13,-7 15,0 25,14 25,40l0 12c-9,9 -41,19 -65,28 -22,7 -32,18 -32,39 0,26 21,53 56,53 8,0 27,-14 43,-24 2,5 5,10 11,15 5,5 14,9 25,9l45 -23zm-83 -14c-7,4 -11,6 -17,6 -9,0 -25,-9 -25,-32 0,-14 7,-21 20,-28 8,-4 15,-9 22,-12l0 66zm161 -140l0 -118c-23,7 -57,12 -78,15l0 12c23,2 25,6 25,30l0 223c29,11 50,15 73,15 60,0 107,-45 107,-105 0,-46 -35,-87 -85,-87 -8,0 -15,2 -26,8l-16 7zm0 15c6,-2 11,-3 17,-3 27,0 53,20 53,73 0,51 -20,76 -43,76 -13,-1 -22,-13 -25,-20 -1,-3 -2,-8 -2,-13l0 -113zm-786 260c-45,0 -98,34 -98,101 0,45 32,92 97,92 48,0 95,-33 95,-100 0,-49 -36,-93 -94,-93zm-5 16c26,0 40,32 40,90 0,60 -16,71 -32,71 -26,0 -42,-40 -42,-91 0,-48 17,-70 34,-70zm198 28l0 -44c-26,8 -50,12 -75,16l0 11c19,5 23,6 23,27l0 90c0,26 -5,28 -27,30l0 14 113 0 0 -14c-32,-2 -34,-4 -34,-30l0 -76c7,-16 15,-22 23,-22 7,0 12,3 19,9 3,2 7,4 13,1 11,-4 20,-15 20,-30 0,-14 -11,-26 -28,-26 -15,0 -31,18 -46,44l-1 0zm271 125l-4 -13c-5,2 -9,3 -14,3 -7,0 -13,-5 -13,-24l0 -68c0,-23 -4,-41 -22,-55 -11,-8 -23,-12 -40,-12 -24,4 -53,19 -69,30 -9,7 -14,12 -14,19 0,11 15,21 25,21 9,0 15,-3 18,-14 3,-13 7,-23 12,-28 3,-5 8,-8 13,-8 16,0 26,15 26,41l0 12c-10,8 -42,18 -66,27 -22,8 -31,18 -31,40 0,25 20,53 55,53 8,0 27,-14 43,-24 2,5 5,10 11,15 5,5 14,9 25,9l45 -24zm-82 -14c-8,5 -12,7 -18,7 -9,0 -25,-9 -25,-32 0,-14 7,-22 20,-28 8,-5 15,-9 23,-13l0 66zm212 17l-4 -14c-7,3 -14,5 -21,5 -8,0 -23,-4 -23,-36l0 -102 38 0c6,-3 7,-15 2,-20l-40 0 0 -60 -6 -2 -47 32 0 30 -16 0 -12 15 2 5 26 0 0 116c0,37 19,52 51,52 3,0 9,-2 17,-5l33 -16zm164 -35c-15,12 -30,18 -46,18 -29,0 -54,-23 -56,-67 41,-1 91,-6 98,-6 10,-2 12,-7 12,-15 1,-34 -28,-67 -66,-67 -23,0 -46,12 -64,30 -17,17 -30,43 -30,74 0,48 30,89 85,89 17,0 49,-9 74,-46l-7 -10zm-67 -120c16,0 25,21 25,42 0,7 -2,8 -9,8 -16,1 -32,1 -49,2 3,-33 17,-52 33,-52z"/>
   <path class="fil1" d="M485 51c-1,0 -1,-1 -1,-1 -1,0 -1,0 -2,-1l0 -4c1,0 2,1 3,1 1,1 1,1 2,2 0,0 0,-1 0,-1 0,-1 0,-2 0,-3 0,-3 0,-5 -1,-6 -1,-2 -2,-3 -4,-3 -2,0 -3,1 -4,2 -1,2 -2,4 -2,7 0,3 1,5 2,6 1,2 2,2 4,2 0,0 1,0 1,0 1,0 1,0 2,-1zm8 7l-1 0c-1,0 -2,0 -3,-1 0,0 -1,-1 -2,-2 -1,1 -2,1 -2,1 -1,0 -2,1 -3,1 -3,0 -6,-2 -8,-4 -1,-2 -2,-5 -2,-9 0,-4 1,-7 2,-9 2,-3 5,-4 8,-4 3,0 6,1 7,4 2,2 3,5 3,9 0,2 0,3 0,5 -1,1 -1,2 -2,3 0,1 1,1 1,1 1,1 1,1 2,1l0 4z"/>
   <path id="1" class="fil1" d="M496 47l0 -15 5 0 0 15c0,2 0,3 1,4 1,1 2,1 3,1 2,0 3,0 4,-1 1,0 1,-2 1,-4l0 -15 5 0 0 16c0,3 -1,5 -3,6 -1,2 -4,3 -7,3 -3,0 -5,-1 -7,-3 -1,-1 -2,-4 -2,-7z"/>
   <polygon id="2" class="fil1" points="520,56 520,32 536,32 536,36 525,36 525,41 533,41 533,45 525,45 525,52 537,52 537,56 "/>
   <path id="3" class="fil1" d="M539 51l4 -2c1,1 1,2 2,3 1,0 2,0 3,0 1,0 2,0 3,0 1,-1 1,-2 1,-3 0,0 0,-1 -1,-2 0,0 -1,-1 -3,-1 0,0 0,0 0,0 -3,-1 -4,-2 -5,-3 -1,0 -2,-1 -3,-2 0,-1 0,-2 0,-3 0,-2 0,-4 2,-5 1,-1 3,-2 6,-2 2,0 4,1 5,2 1,0 2,2 3,4l-4 1c-1,-1 -1,-2 -2,-2 -1,-1 -2,-1 -3,-1 -1,0 -1,0 -2,1 -1,0 -1,1 -1,2 0,1 2,2 4,3 1,0 2,1 2,1 3,1 4,2 5,3 1,1 2,2 2,4 0,2 -1,4 -3,6 -1,1 -3,1 -6,1 -2,0 -4,0 -6,-1 -1,-1 -2,-2 -3,-4z"/>
   <polygon id="4" class="fil1" points="565,56 565,36 559,36 559,32 576,32 576,36 570,36 570,56 "/>
   <polygon id="5" class="fil1" points="580,56 580,32 585,32 585,56 "/>
   <path id="6" class="fil1" d="M594 44c0,3 0,5 1,6 1,2 3,2 4,2 2,0 4,0 5,-2 1,-1 1,-3 1,-6 0,-3 0,-5 -1,-7 -1,-1 -3,-2 -5,-2 -1,0 -3,1 -4,2 -1,2 -1,4 -1,7zm-5 0c0,-4 1,-7 3,-9 2,-3 4,-4 7,-4 4,0 6,1 8,4 2,2 3,5 3,9 0,4 -1,7 -3,9 -2,2 -4,4 -8,4 -3,0 -5,-2 -7,-4 -2,-2 -3,-5 -3,-9z"/>
   <path id="7" class="fil1" d="M618 47l6 0 -3 -11 -3 11zm-7 9l8 -24 5 0 8 24 -5 0 -1 -5 -9 0 -1 5 -5 0z"/>
   <path id="8" class="fil1" d="M639 41l4 0c1,0 2,0 3,0 1,-1 1,-2 1,-3 0,-1 0,-2 -1,-2 -1,0 -2,-1 -3,-1l-4 0 0 6zm0 11l4 0c1,0 3,0 3,-1 1,0 2,-1 2,-2 0,-2 -1,-2 -2,-3 0,-1 -1,-1 -3,-1l-4 0 0 7zm-5 4l0 -24 9 0c3,0 5,0 7,1 1,1 2,3 2,5 0,1 -1,2 -1,3 -1,1 -2,2 -3,2 1,1 3,1 3,2 1,1 1,3 1,4 0,3 0,4 -2,5 -1,2 -4,2 -7,2l-9 0z"/>
   <polygon id="9" class="fil1" points="657,56 657,32 662,32 662,52 672,52 672,56 "/>
   <polygon id="10" class="fil1" points="676,56 676,32 692,32 692,36 680,36 680,41 689,41 689,45 680,45 680,52 692,52 692,56 "/>
   <polygon id="11" class="fil1" points="711,56 711,36 704,36 704,32 722,32 722,36 715,36 715,56 "/>
   <polygon id="12" class="fil1" points="725,56 725,32 741,32 741,36 730,36 730,41 738,41 738,45 730,45 730,52 742,52 742,56 "/>
   <path id="13" class="fil1" d="M750 47l6 0 -3 -11 -3 11zm-7 9l7 -24 6 0 8 24 -5 0 -1 -5 -9 0 -2 5 -4 0z"/>
   <path id="14" class="fil1" d="M767 56l0 -24 6 0 4 11c0,2 0,3 1,4 0,1 0,2 0,3 0,-1 1,-2 1,-3 0,-1 0,-2 1,-3l3 -12 7 0 0 24 -4 0 0 -21c0,1 -1,2 -1,3 0,1 0,2 -1,3l-4 15 -4 0 -4 -15c0,-2 -1,-3 -1,-4 0,0 0,-1 0,-2l0 21 -4 0z"/>
  </g>
 </g>
</svg>
