<?xml version="1.0" encoding="UTF-8"?>
<!DOCTYPE svg PUBLIC "-//W3C//DTD SVG 1.1//EN" "http://www.w3.org/Graphics/SVG/1.1/DTD/svg11.dtd">
<!-- Creator: CorelDRAW X7 -->
<svg xmlns="http://www.w3.org/2000/svg" xml:space="preserve" width="3.27778in" height="3.52778in" version="1.1" style="shape-rendering:geometricPrecision; text-rendering:geometricPrecision; image-rendering:optimizeQuality; fill-rule:evenodd; clip-rule:evenodd"
viewBox="0 0 683 735"
 xmlns:xlink="http://www.w3.org/1999/xlink">
 <defs>
  <style type="text/css">
   <![CDATA[
    .fil0 {fill:white}
    .fil1 {fill:black;fill-rule:nonzero}
   ]]>
  </style>
 </defs>
 <g id="Layer_x0020_1">
  <metadata id="CorelCorpID_0Corel-Layer"/>
  <g id="_2397660294768">
   <path class="fil0" d="M0 0l683 0 0 735 -683 0 0 -735zm111 213l0 -16c-15,4 -30,8 -42,10l0 7c11,2 13,3 13,15l0 101c0,12 -1,14 -15,15l0 7 62 0 0 -7c-17,-1 -18,-3 -18,-16l0 -28c3,1 8,3 14,3 28,-7 54,-29 54,-62 0,-21 -14,-43 -40,-43 -4,0 -8,2 -13,4l-15 10zm0 9c4,-4 8,-6 14,-6 11,0 25,10 25,38 0,23 -9,38 -21,38 -6,0 -14,-4 -18,-8l0 -62zm120 -9l0 -16c-15,4 -29,8 -41,10l0 7c11,2 13,3 13,15l0 101c0,12 -1,14 -15,15l0 7 62 0 0 -7c-18,-1 -19,-3 -19,-16l0 -28c4,1 9,3 14,3 29,-7 55,-29 55,-62 0,-21 -14,-43 -41,-43 -4,0 -8,2 -12,4l-16 10zm0 9c4,-4 9,-6 15,-6 11,0 24,10 24,38 0,23 -8,38 -20,38 -6,0 -14,-4 -19,-8l0 -62zm-124 220l0 -64c-13,3 -31,6 -42,8l0 6c12,1 14,3 14,16l0 122c15,5 26,8 39,8 33,0 58,-25 58,-57 0,-25 -19,-48 -46,-48 -5,0 -8,2 -15,5l-8 4zm0 7c4,0 6,-1 9,-1 15,0 29,11 29,40 0,28 -11,41 -23,41 -7,0 -12,-7 -14,-11 0,-2 -1,-4 -1,-7l0 -62zm138 -16c-24,0 -53,19 -53,55 0,24 17,50 52,50 27,0 52,-18 52,-54 0,-27 -19,-51 -51,-51zm-3 9c15,0 22,17 22,48 0,33 -9,39 -17,39 -14,0 -23,-22 -23,-49 0,-26 9,-38 18,-38zm123 -9c-24,0 -53,19 -53,55 0,24 17,50 52,50 27,0 52,-18 52,-54 0,-27 -19,-51 -51,-51zm-3 9c15,0 22,17 22,48 0,33 -9,39 -17,39 -14,0 -23,-22 -23,-49 0,-26 9,-38 18,-38zm180 93l0 -7c-8,-2 -11,-4 -19,-12 -6,-8 -26,-35 -32,-45 6,-8 10,-12 16,-18 6,-6 14,-9 28,-12l0 -6 -49 2 0 6c9,2 10,5 7,9 -2,5 -8,14 -13,20 -3,3 -8,7 -13,8l0 -102c-15,4 -31,6 -41,8l0 6c11,1 13,3 13,15l0 104c0,15 -1,15 -15,17l0 7 58 0 0 -7c-13,-2 -15,-3 -15,-17l0 -24c1,0 2,0 2,0 1,0 3,1 5,4 10,16 22,36 29,44l39 0zm71 -72c-1,-5 -3,-20 -6,-26 -5,-2 -11,-4 -21,-4 -24,0 -38,15 -38,32 0,19 18,28 29,33 14,7 17,12 17,19 0,7 -5,12 -13,12 -13,0 -24,-15 -28,-30l-7 1c0,11 2,26 3,30 5,3 17,8 29,8 18,0 40,-11 40,-33 0,-18 -12,-26 -31,-34 -11,-5 -16,-10 -16,-17 0,-7 6,-12 11,-12 11,0 18,9 24,23l7 -2z"/>
   <polygon class="fil1" points="136,593 136,577 139,577 139,583 145,583 145,577 148,577 148,593 145,593 145,586 139,586 139,593 "/>
   <polygon id="1" class="fil1" points="151,593 151,577 161,577 161,580 154,580 154,584 159,584 159,586 154,586 154,590 162,590 162,593 "/>
   <path id="2" class="fil1" d="M167 587l4 0 -2 -7 -2 7zm-5 6l5 -16 4 0 5 16 -3 0 -1 -3 -6 0 -1 3 -3 0z"/>
   <path id="3" class="fil1" d="M180 584l3 0c1,0 2,0 2,0 1,-1 1,-1 1,-2 0,-1 0,-1 -1,-2 0,0 -1,0 -2,0l-3 0 0 4zm-3 9l0 -16 6 0c2,0 3,1 4,1 1,1 2,2 2,4 0,1 0,2 -1,2 0,1 -1,2 -2,2l3 7 -3 0 -3 -6 -3 0 0 6 -3 0z"/>
   <polygon id="4" class="fil1" points="195,593 195,580 191,580 191,577 202,577 202,580 198,580 198,593 "/>
   <polygon id="5" class="fil1" points="214,593 214,580 209,580 209,577 221,577 221,580 217,580 217,593 "/>
   <polygon id="6" class="fil1" points="223,593 223,577 226,577 226,583 232,583 232,577 235,577 235,593 232,593 232,586 226,586 226,593 "/>
   <path id="7" class="fil1" d="M241 584l3 0c1,0 1,0 2,0 0,-1 1,-1 1,-2 0,-1 -1,-1 -1,-2 -1,0 -1,0 -2,0l-3 0 0 4zm-3 9l0 -16 6 0c2,0 3,1 4,1 1,1 2,2 2,4 0,1 -1,2 -1,2 -1,1 -1,2 -2,2l3 7 -3 0 -3 -6 -3 0 0 6 -3 0z"/>
   <path id="8" class="fil1" d="M255 585c0,2 0,3 1,4 0,1 1,2 2,2 2,0 2,-1 3,-2 1,-1 1,-2 1,-4 0,-2 0,-3 -1,-4 -1,-1 -1,-1 -3,-1 -1,0 -2,0 -2,1 -1,1 -1,2 -1,4zm-3 0c0,-2 0,-4 2,-6 1,-1 2,-2 4,-2 2,0 4,1 5,2 1,2 2,4 2,6 0,3 -1,5 -2,6 -1,2 -3,2 -5,2 -2,0 -3,0 -4,-2 -2,-1 -2,-3 -2,-6z"/>
   <path id="9" class="fil1" d="M270 584l3 0c1,0 1,-1 2,-1 0,0 0,-1 0,-1 0,-1 0,-2 0,-2 -1,0 -1,0 -2,0l-3 0 0 4zm0 7l3 0c1,0 2,-1 2,-1 1,0 1,-1 1,-2 0,-1 0,-1 -1,-2 0,0 -1,0 -2,0l-3 0 0 5zm-3 2l0 -16 6 0c2,0 3,1 4,1 1,1 1,2 1,3 0,1 0,2 0,2 -1,1 -1,1 -2,2 1,0 2,1 2,1 1,1 1,2 1,3 0,1 -1,2 -2,3 -1,1 -2,1 -4,1l-6 0z"/>
   <path id="10" class="fil1" d="M290 585c0,2 1,3 1,4 1,1 2,2 3,2 1,0 2,-1 3,-2 0,-1 1,-2 1,-4 0,-2 -1,-3 -1,-4 -1,-1 -2,-1 -3,-1 -1,0 -2,0 -3,1 0,1 -1,2 -1,4zm-3 0c0,-2 1,-4 2,-6 1,-1 3,-2 5,-2 2,0 4,1 5,2 1,2 2,4 2,6 0,3 -1,5 -2,6 -1,2 -3,2 -5,2 -2,0 -4,0 -5,-2 -1,-1 -2,-3 -2,-6z"/>
   <polygon id="11" class="fil1" points="303,593 303,577 313,577 313,580 306,580 306,583 311,583 311,586 306,586 306,593 "/>
   <polygon id="12" class="fil1" points="322,593 322,577 332,577 332,580 325,580 325,584 330,584 330,586 325,586 325,590 333,590 333,593 "/>
   <polygon id="13" class="fil1" points="338,593 333,577 336,577 340,590 343,577 346,577 342,593 "/>
   <polygon id="14" class="fil1" points="348,593 348,577 359,577 359,580 351,580 351,584 357,584 357,586 351,586 351,590 359,590 359,593 "/>
   <path id="15" class="fil1" d="M364 584l3 0c1,0 2,0 2,0 0,-1 1,-1 1,-2 0,-1 -1,-1 -1,-2 0,0 -1,0 -2,0l-3 0 0 4zm-3 9l0 -16 6 0c2,0 3,1 4,1 1,1 2,2 2,4 0,1 -1,2 -1,2 -1,1 -1,2 -2,2l3 7 -3 0 -3 -6 -3 0 0 6 -3 0z"/>
   <polygon id="16" class="fil1" points="378,593 378,587 374,577 377,577 380,584 383,577 386,577 381,587 381,593 "/>
   <path id="17" class="fil1" d="M394 593l0 -16 4 0 3 8c0,1 0,1 0,2 0,1 1,1 1,2 0,-1 0,-1 0,-2 0,-1 0,-1 1,-2l2 -8 4 0 0 16 -2 0 0 -13c-1,0 -1,1 -1,2 0,0 0,1 0,1l-3 10 -2 0 -3 -10c-1,-1 -1,-2 -1,-2 0,0 0,-1 0,-1l0 13 -3 0z"/>
   <path id="18" class="fil1" d="M416 590l1 0c2,0 3,0 4,-1 0,-1 1,-2 1,-4 0,-2 -1,-3 -1,-4 -1,-1 -2,-1 -4,-1l-1 0 0 10zm-3 3l0 -16 4 0c3,0 5,1 6,2 1,2 2,3 2,6 0,3 -1,5 -2,6 -1,1 -3,2 -6,2l-4 0z"/>
   <path id="19" class="fil1" d="M426 589l3 -1c0,1 1,2 1,2 1,0 1,1 2,1 1,0 2,-1 2,-1 1,0 1,-1 1,-1 0,-1 0,-1 -1,-2 0,0 -1,0 -2,-1 0,0 0,0 0,0 -2,0 -3,-1 -3,-1 -1,-1 -1,-1 -2,-2 0,0 0,-1 0,-2 0,-1 0,-2 1,-3 1,-1 2,-1 4,-1 1,0 2,0 3,1 1,0 2,1 2,2l-2 1c-1,0 -1,-1 -2,-1 0,0 -1,-1 -1,-1 -1,0 -1,1 -2,1 0,0 0,1 0,1 0,1 1,2 2,2 1,1 1,1 2,1 1,1 2,1 3,2 0,1 1,1 1,3 0,1 -1,2 -2,3 -1,1 -2,1 -4,1 -1,0 -2,0 -3,-1 -1,0 -2,-1 -3,-3z"/>
   <path id="20" class="fil1" d="M450 587l4 0 -2 -7 -2 7zm-5 6l5 -16 4 0 4 16 -3 0 -1 -3 -5 0 -1 3 -3 0z"/>
   <path id="21" class="fil1" d="M459 589l3 -1c0,1 1,2 1,2 1,0 1,1 2,1 1,0 1,-1 2,-1 0,0 0,-1 0,-1 0,-1 0,-1 0,-2 0,0 -1,0 -2,-1 0,0 0,0 0,0 -2,0 -3,-1 -4,-1 0,-1 -1,-1 -1,-2 0,0 -1,-1 -1,-2 0,-1 1,-2 2,-3 1,-1 2,-1 4,-1 1,0 2,0 3,1 1,0 2,1 2,2l-3 1c0,0 0,-1 -1,-1 0,0 -1,-1 -2,-1 0,0 -1,1 -1,1 0,0 -1,1 -1,1 0,1 1,2 3,2 1,1 1,1 1,1 2,1 3,1 3,2 1,1 1,1 1,3 0,1 0,2 -1,3 -1,1 -2,1 -4,1 -2,0 -3,0 -4,-1 -1,0 -2,-1 -2,-3z"/>
   <path id="22" class="fil1" d="M476 584l2 0c1,0 2,0 2,0 1,-1 1,-1 1,-2 0,-1 0,-1 -1,-2 0,0 -1,0 -2,0l-2 0 0 4zm-3 9l0 -16 5 0c2,0 4,1 5,1 1,1 1,2 1,4 0,1 0,3 -1,3 -1,1 -3,2 -4,2l-3 0 0 6 -3 0z"/>
   <polygon id="23" class="fil1" points="487,593 487,577 490,577 490,593 "/>
   <path id="24" class="fil1" d="M497 584l2 0c1,0 2,0 2,0 1,-1 1,-1 1,-2 0,-1 0,-1 -1,-2 0,0 -1,0 -2,0l-2 0 0 4zm-3 9l0 -16 5 0c2,0 4,1 5,1 0,1 1,2 1,4 0,1 0,2 -1,2 0,1 -1,2 -2,2l4 7 -4 0 -3 -6 -2 0 0 6 -3 0z"/>
   <path id="25" class="fil1" d="M511 587l4 0 -2 -7 -2 7zm-4 6l4 -16 4 0 5 16 -3 0 -1 -3 -6 0 -1 3 -2 0z"/>
   <path id="26" class="fil1" d="M522 593l0 -16 3 0 4 8c1,1 1,1 1,2 1,1 1,1 1,2 0,-1 0,-1 0,-2 0,0 0,-1 0,-1l0 -9 3 0 0 16 -3 0 -5 -8c0,-1 -1,-1 -1,-2 0,0 -1,-1 -1,-2 0,0 0,1 0,1 0,1 0,2 0,2l0 9 -2 0z"/>
   <polygon id="27" class="fil1" points="540,593 540,580 536,580 536,577 547,577 547,580 543,580 543,593 "/>
   <polygon class="fil1" points="223,142 223,126 226,126 226,133 231,126 235,126 230,132 235,142 232,142 228,134 226,137 226,142 "/>
   <polygon id="1" class="fil1" points="238,142 238,126 248,126 248,129 241,129 241,132 246,132 246,135 241,135 241,139 248,139 248,142 "/>
   <polygon id="2" class="fil1" points="253,142 253,136 249,126 252,126 255,133 258,126 261,126 256,136 256,142 "/>
   <polygon id="3" class="fil1" points="269,142 269,126 279,126 279,129 272,129 272,132 278,132 278,135 272,135 272,142 "/>
   <path id="4" class="fil1" d="M284 134c0,2 0,3 1,4 0,1 1,1 2,1 1,0 2,0 3,-1 0,-1 1,-2 1,-4 0,-2 -1,-3 -1,-4 -1,-1 -2,-2 -3,-2 -1,0 -2,1 -2,2 -1,1 -1,2 -1,4zm-3 0c0,-3 0,-5 1,-6 2,-1 3,-2 5,-2 2,0 4,1 5,2 1,1 2,3 2,6 0,2 -1,4 -2,6 -1,1 -3,2 -5,2 -2,0 -3,-1 -5,-2 -1,-2 -1,-4 -1,-6z"/>
   <path id="5" class="fil1" d="M299 133l3 0c1,0 1,0 2,-1 0,0 1,-1 1,-1 0,-1 -1,-2 -1,-2 -1,0 -1,-1 -2,-1l-3 0 0 5zm-3 9l0 -16 6 0c2,0 3,0 4,1 1,1 2,2 2,4 0,1 -1,2 -1,2 -1,1 -1,1 -2,2l3 7 -3 0 -3 -7 -3 0 0 7 -3 0z"/>
   <path id="6" class="fil1" d="M319 134c0,2 1,3 1,4 1,1 2,1 3,1 1,0 2,0 3,-1 0,-1 0,-2 0,-4 0,-2 0,-3 0,-4 -1,-1 -2,-2 -3,-2 -1,0 -2,1 -3,2 0,1 -1,2 -1,4zm-3 0c0,-3 1,-5 2,-6 1,-1 3,-2 5,-2 2,0 4,1 5,2 1,1 1,3 1,6 0,2 0,4 -1,6 -1,1 -3,2 -5,2 -2,0 -4,-1 -5,-2 -1,-2 -2,-4 -2,-6z"/>
   <path id="7" class="fil1" d="M332 136l0 -10 3 0 0 10c0,1 0,2 1,3 0,0 1,0 2,0 1,0 2,0 2,0 1,-1 1,-2 1,-3l0 -10 3 0 0 10c0,2 -1,4 -2,5 -1,1 -2,1 -4,1 -2,0 -3,0 -4,-1 -1,-1 -2,-3 -2,-5z"/>
   <path id="8" class="fil1" d="M350 133l3 0c1,0 2,0 2,-1 1,0 1,-1 1,-1 0,-1 0,-2 -1,-2 0,0 -1,-1 -2,-1l-3 0 0 5zm-2 9l0 -16 5 0c2,0 3,0 4,1 1,1 2,2 2,4 0,1 0,2 -1,2 0,1 -1,1 -2,2l3 7 -3 0 -3 -7 -3 0 0 7 -2 0z"/>
   <path id="9" class="fil1" d="M367 138l3 -1c0,1 1,1 1,2 1,0 2,0 2,0 1,0 2,0 2,0 1,0 1,-1 1,-2 0,0 0,0 -1,-1 0,0 -1,0 -2,-1 0,0 0,0 0,0 -2,-1 -3,-1 -3,-1 -1,-1 -1,-1 -2,-2 0,0 0,-1 0,-2 0,-1 0,-2 1,-3 1,-1 3,-1 4,-1 1,0 2,0 3,1 1,0 2,1 2,2l-2 1c-1,0 -1,-1 -2,-1 0,-1 -1,-1 -1,-1 -1,0 -1,0 -2,1 0,0 0,0 0,1 0,1 1,1 2,2 1,0 1,1 2,1 1,0 2,1 3,2 0,0 1,1 1,2 0,2 -1,3 -2,4 -1,1 -2,1 -4,1 -1,0 -2,0 -3,-1 -1,-1 -2,-2 -3,-3z"/>
   <path id="10" class="fil1" d="M381 136l0 -10 3 0 0 10c0,1 0,2 1,3 0,0 1,0 2,0 1,0 2,0 3,0 0,-1 0,-2 0,-3l0 -10 3 0 0 10c0,2 0,4 -1,5 -1,1 -3,1 -5,1 -2,0 -3,0 -4,-1 -1,-1 -2,-3 -2,-5z"/>
   <path id="11" class="fil1" d="M405 137l3 1c-1,1 -1,2 -2,3 -1,1 -3,1 -4,1 -2,0 -4,-1 -5,-2 -1,-1 -1,-3 -1,-6 0,-3 0,-5 1,-6 2,-2 3,-2 5,-2 2,0 3,0 4,1 1,1 1,2 1,3l-2 1c0,-1 -1,-2 -1,-2 -1,-1 -1,-1 -2,-1 -1,0 -2,1 -2,2 -1,1 -1,2 -1,4 0,2 0,3 1,4 0,1 1,1 2,1 1,0 1,0 2,0 0,-1 1,-1 1,-2z"/>
   <path id="12" class="fil1" d="M418 137l3 1c0,1 -1,2 -2,3 -1,1 -2,1 -4,1 -2,0 -3,-1 -4,-2 -1,-1 -2,-3 -2,-6 0,-3 1,-5 2,-6 1,-2 3,-2 5,-2 1,0 2,0 3,1 1,1 2,2 2,3l-3 1c0,-1 0,-2 -1,-2 0,-1 -1,-1 -2,-1 -1,0 -1,1 -2,2 -1,1 -1,2 -1,4 0,2 0,3 1,4 1,1 1,1 2,1 1,0 2,0 2,0 1,-1 1,-1 1,-2z"/>
   <polygon id="13" class="fil1" points="424,142 424,126 434,126 434,129 427,129 427,132 432,132 432,135 427,135 427,139 434,139 434,142 "/>
   <path id="14" class="fil1" d="M435 138l3 -1c1,1 1,1 2,2 0,0 1,0 1,0 1,0 2,0 2,0 1,0 1,-1 1,-2 0,0 0,0 -1,-1 0,0 -1,0 -1,-1 -1,0 -1,0 -1,0 -2,-1 -3,-1 -3,-1 -1,-1 -1,-1 -2,-2 0,0 0,-1 0,-2 0,-1 0,-2 1,-3 1,-1 3,-1 4,-1 1,0 3,0 3,1 1,0 2,1 2,2l-2 1c-1,0 -1,-1 -1,-1 -1,-1 -1,-1 -2,-1 -1,0 -1,0 -2,1 0,0 0,0 0,1 0,1 1,1 3,2 0,0 1,1 1,1 1,0 2,1 3,2 0,0 1,1 1,2 0,2 -1,3 -2,4 -1,1 -2,1 -4,1 -1,0 -2,0 -3,-1 -1,-1 -2,-2 -3,-3z"/>
   <path id="15" class="fil1" d="M448 138l3 -1c0,1 1,1 1,2 1,0 1,0 2,0 1,0 1,0 2,0 0,0 1,-1 1,-2 0,0 -1,0 -1,-1 0,0 -1,0 -2,-1 0,0 0,0 0,0 -2,-1 -3,-1 -3,-1 -1,-1 -2,-1 -2,-2 0,0 0,-1 0,-2 0,-1 0,-2 1,-3 1,-1 2,-1 4,-1 1,0 2,0 3,1 1,0 2,1 2,2l-3 1c0,0 0,-1 -1,-1 0,-1 -1,-1 -1,-1 -1,0 -2,0 -2,1 0,0 0,0 0,1 0,1 0,1 2,2 1,0 1,1 2,1 1,0 2,1 3,2 0,0 0,1 0,2 0,2 0,3 -1,4 -1,1 -2,1 -4,1 -1,0 -3,0 -4,-1 -1,-1 -1,-2 -2,-3z"/>
  </g>
 </g>
</svg>
