<?xml version="1.0" encoding="UTF-8"?>
<!DOCTYPE svg PUBLIC "-//W3C//DTD SVG 1.1//EN" "http://www.w3.org/Graphics/SVG/1.1/DTD/svg11.dtd">
<!-- Creator: CorelDRAW X7 -->
<svg xmlns="http://www.w3.org/2000/svg" xml:space="preserve" width="6.34487in" height="2.87995in" version="1.1" style="shape-rendering:geometricPrecision; text-rendering:geometricPrecision; image-rendering:optimizeQuality; fill-rule:evenodd; clip-rule:evenodd"
viewBox="0 0 1335 606"
 xmlns:xlink="http://www.w3.org/1999/xlink">
 <defs>
  <style type="text/css">
   <![CDATA[
    .fil0 {fill:white}
    .fil1 {fill:black;fill-rule:nonzero}
   ]]>
  </style>
 </defs>
 <g id="Layer_x0020_1">
  <metadata id="CorelCorpID_0Corel-Layer"/>
  <g id="_2432836318224">
   <path class="fil0" d="M0 0l1335 0 0 606 -1335 0 0 -606zm284 268c-1,-11 -7,-49 -12,-62 -13,-5 -27,-9 -52,-9 -56,0 -90,34 -90,76 0,46 43,67 68,79 33,16 41,29 41,45 0,16 -12,29 -30,29 -32,0 -57,-37 -69,-71l-16 2c1,26 5,63 9,72 10,8 39,18 67,18 45,0 96,-26 96,-79 0,-42 -29,-61 -72,-80 -28,-12 -40,-25 -40,-41 0,-17 14,-29 27,-29 26,0 43,22 57,55l16 -5zm276 148l-5 -17c-6,2 -12,4 -18,4 -9,0 -17,-7 -17,-31l0 -89c0,-30 -5,-53 -28,-71 -15,-10 -31,-15 -53,-15 -31,5 -69,24 -89,38 -12,9 -19,16 -19,26 0,14 19,27 33,27 12,0 19,-5 23,-19 4,-16 9,-29 16,-37 4,-6 10,-9 17,-9 20,0 33,18 33,52l0 16c-12,11 -54,24 -85,36 -28,10 -41,23 -41,51 0,34 27,69 72,69 11,0 36,-18 56,-31 3,6 7,13 14,20 7,6 18,11 33,11l58 -31zm-107 -18c-9,7 -15,9 -23,9 -12,0 -32,-12 -32,-42 0,-18 9,-28 25,-36 11,-6 20,-12 30,-17l0 86zm289 -130c-1,-11 -7,-49 -13,-62 -12,-5 -26,-9 -51,-9 -56,0 -90,34 -90,76 0,46 43,67 68,79 33,16 41,29 41,45 0,16 -12,29 -30,29 -33,0 -57,-37 -69,-71l-16 2c0,26 5,63 8,72 11,8 40,18 68,18 45,0 96,-26 96,-79 0,-42 -29,-61 -72,-80 -28,-12 -40,-25 -40,-41 0,-17 13,-29 27,-29 26,0 43,22 57,55l16 -5zm308 173l0 -18c-28,-5 -31,-5 -31,-39l0 -98c0,-59 -27,-89 -74,-89 -26,0 -53,16 -71,35l0 -169c-32,8 -71,16 -99,20l0 15c28,3 30,3 30,36l0 250c0,34 -3,36 -34,39l0 18 127 0 0 -18c-22,-3 -24,-7 -24,-37l0 -134c11,-12 26,-15 38,-15 21,0 39,14 39,55l0 94c0,30 -2,34 -27,37l0 18 126 0zm89 -278c22,0 39,-17 39,-38 0,-21 -17,-37 -38,-37 -20,0 -38,16 -38,37 0,21 18,38 37,38zm74 278l0 -18c-32,-4 -35,-7 -35,-44l0 -182c-30,8 -65,15 -98,19l0 16c26,4 30,6 30,41l0 106c0,38 -3,41 -34,44l0 18 137 0z"/>
   <polygon class="fil1" points="114,147 114,122 119,122 119,147 "/>
   <polygon id="1" class="fil1" points="130,147 130,126 123,126 123,122 141,122 141,126 134,126 134,147 "/>
   <path id="2" class="fil1" d="M154 126l0 -4 5 0 0 4 -5 0zm0 21l0 -18 5 0 0 18 -5 0z"/>
   <path id="3" class="fil1" d="M162 144l3 -3c0,1 1,2 2,2 0,1 1,1 2,1 1,0 1,0 2,-1 0,0 0,-1 0,-1 0,-1 -1,-2 -3,-3 0,0 0,0 0,0 -2,-1 -4,-1 -5,-2 0,-1 -1,-2 -1,-3 0,-2 1,-3 2,-4 1,-1 3,-2 5,-2 1,0 2,1 3,1 1,1 2,1 3,2l-3 3c-1,-1 -1,-2 -2,-2 0,0 -1,0 -2,0 0,0 -1,0 -1,0 -1,1 -1,1 -1,1 0,1 1,2 3,3 0,0 1,0 1,0 2,1 3,2 4,2 1,1 1,2 1,4 0,1 -1,3 -2,4 -1,1 -2,1 -4,1 -2,0 -3,0 -4,-1 -1,0 -2,-1 -3,-2z"/>
   <path id="4" class="fil1" d="M198 138c-2,0 -4,1 -5,1 -1,1 -1,2 -1,3 0,0 0,1 0,1 1,1 1,1 2,1 0,0 1,0 2,-1 0,0 1,0 2,-1l0 -4zm0 9l0 -2c-1,1 -2,1 -3,2 -1,0 -2,0 -3,0 -1,0 -2,0 -3,-1 -1,-1 -1,-2 -1,-4 0,-2 0,-3 2,-4 2,-2 4,-2 8,-3l0 -1c0,-1 0,-1 -1,-2 0,0 -1,0 -2,0 -1,0 -1,0 -2,0 -1,1 -1,1 -2,2l-3 -2c1,-1 2,-2 3,-3 1,0 3,-1 4,-1 2,0 4,1 5,2 1,1 2,2 2,4l0 10c0,1 0,1 0,1 0,1 0,1 0,2l-4 0z"/>
   <path id="5" class="fil1" d="M222 133l4 0c2,0 3,-1 3,-1 1,-1 2,-2 2,-3 0,-1 -1,-2 -2,-2 0,-1 -1,-1 -3,-1l-4 0 0 7zm-5 14l0 -25 9 0c3,0 5,0 7,2 1,1 2,3 2,5 0,2 0,3 -1,4 -1,1 -2,2 -3,3l5 11 -5 0 -5 -10 -4 0 0 10 -5 0z"/>
   <path id="6" class="fil1" d="M244 134c0,3 0,5 1,7 1,1 2,2 4,2 2,0 3,-1 4,-2 1,-2 2,-4 2,-7 0,-2 -1,-5 -2,-6 -1,-2 -2,-2 -4,-2 -2,0 -3,0 -4,2 -1,1 -1,4 -1,6zm-5 0c0,-4 1,-7 3,-9 1,-2 4,-4 7,-4 3,0 6,2 8,4 2,2 3,5 3,9 0,4 -1,8 -3,10 -2,2 -5,3 -8,3 -3,0 -6,-1 -7,-3 -2,-2 -3,-6 -3,-10z"/>
   <path id="7" class="fil1" d="M268 132l4 0c1,0 3,0 3,-1 1,0 1,-1 1,-2 0,-1 0,-2 -1,-3 0,0 -2,0 -3,0l-4 0 0 6zm0 11l4 0c2,0 3,0 4,-1 1,-1 1,-1 1,-3 0,-1 0,-2 -1,-3 -1,0 -2,0 -4,0l-4 0 0 7zm-4 4l0 -25 9 0c2,0 4,0 6,1 1,2 2,3 2,5 0,2 0,3 -1,4 0,0 -1,1 -3,2 2,0 3,1 4,2 0,1 1,2 1,4 0,2 -1,4 -3,5 -1,1 -4,2 -7,2l-8 0z"/>
   <path id="8" class="fil1" d="M290 134c0,3 0,5 1,7 1,1 2,2 4,2 2,0 4,-1 4,-2 1,-2 2,-4 2,-7 0,-2 -1,-5 -2,-6 0,-2 -2,-2 -4,-2 -2,0 -3,0 -4,2 -1,1 -1,4 -1,6zm-5 0c0,-4 1,-7 3,-9 2,-2 4,-4 7,-4 4,0 6,2 8,4 2,2 3,5 3,9 0,4 -1,8 -3,10 -2,2 -4,3 -8,3 -3,0 -5,-1 -7,-3 -2,-2 -3,-6 -3,-10z"/>
   <path id="9" class="fil1" d="M311 138l-1 -16 5 0 -1 16 -3 0zm-1 9l0 -5 5 0 0 5 -5 0z"/>
   <polygon class="fil1" points="689,505 689,493 680,475 686,475 692,487 698,475 703,475 695,493 695,505 "/>
   <path id="1" class="fil1" d="M706 494c0,2 0,4 1,5 1,1 2,2 3,2 2,0 3,-1 3,-2 1,-1 1,-3 1,-5 0,-2 0,-4 -1,-5 0,-1 -1,-2 -3,-2 -1,0 -2,1 -3,2 -1,1 -1,3 -1,5zm-5 0c0,-3 1,-6 2,-8 2,-2 4,-3 7,-3 3,0 5,1 7,3 2,2 3,5 3,8 0,4 -1,6 -3,8 -2,2 -4,3 -7,3 -3,0 -5,-1 -7,-3 -1,-2 -2,-4 -2,-8z"/>
   <path id="2" class="fil1" d="M736 503c-1,1 -2,1 -3,2 -1,0 -2,0 -3,0 -2,0 -4,0 -5,-1 -1,-1 -2,-3 -2,-6l0 -15 6 0 0 14c0,2 0,3 0,3 1,1 1,1 2,1 1,0 2,0 3,0 0,-1 1,-1 2,-2l0 -16 5 0 0 22 -5 0 0 -2z"/>
   <path id="3" class="fil1" d="M747 505l0 -22 5 0 0 4c0,-2 1,-3 2,-3 1,-1 2,-1 3,-1 0,0 0,0 0,0 1,0 1,0 1,0l0 5 -1 0c-1,0 -2,0 -3,1 -1,1 -1,2 -2,3l0 13 -5 0z"/>
   <path id="4" class="fil1" d="M779 499c1,1 1,2 2,2 0,0 1,0 2,0 1,0 2,0 3,-2 1,-1 1,-3 1,-5 0,-2 0,-4 -1,-5 -1,-1 -2,-2 -3,-2 -1,0 -2,0 -2,1 -1,0 -1,0 -2,1l0 10zm0 4l0 10 -5 0 0 -30 4 0 0 3c1,-1 2,-2 3,-3 1,0 2,0 3,0 3,0 5,1 6,3 2,2 3,5 3,8 0,3 -1,6 -3,8 -1,2 -3,3 -6,3 -1,0 -2,0 -3,0 -1,-1 -1,-1 -2,-2z"/>
   <path id="5" class="fil1" d="M800 491l8 0c0,-1 0,-2 -1,-3 0,-1 -1,-1 -3,-1 -1,0 -2,0 -2,1 -1,1 -2,2 -2,3zm13 10c-1,1 -2,2 -3,3 -2,1 -4,1 -6,1 -3,0 -5,-1 -6,-3 -2,-1 -3,-4 -3,-8 0,-3 1,-6 3,-8 1,-2 3,-3 6,-3 3,0 5,1 7,3 2,2 2,4 2,8 0,0 0,0 0,0 0,1 0,1 0,1l-13 0c0,2 1,4 1,5 1,1 2,1 4,1 1,0 2,0 2,0 1,-1 2,-2 2,-3l4 3z"/>
   <path id="6" class="fil1" d="M817 505l0 -22 5 0 0 4c1,-2 2,-3 3,-3 1,-1 2,-1 3,-1 0,0 0,0 0,0 0,0 0,0 0,0l0 5 0 0c-1,0 -2,0 -3,1 -1,1 -2,2 -2,3l0 13 -6 0z"/>
   <path id="7" class="fil1" d="M830 501l3 -3c1,1 2,2 3,3 1,0 2,0 3,0 0,0 1,0 2,0 0,-1 1,-1 1,-2 0,-1 -2,-2 -4,-3 0,0 0,0 0,0 -3,-1 -5,-2 -6,-3 -1,-1 -1,-2 -1,-4 0,-2 0,-3 2,-5 1,-1 3,-1 5,-1 2,0 3,0 4,1 2,0 3,1 4,2l-4 3c0,-1 -1,-1 -2,-2 0,0 -1,0 -2,0 -1,0 -1,0 -2,0 0,1 -1,1 -1,2 0,1 1,2 4,2 0,1 1,1 1,1 3,1 4,2 5,3 1,1 1,2 1,4 0,2 0,3 -2,5 -1,1 -3,2 -5,2 -2,0 -4,-1 -5,-2 -2,0 -3,-1 -4,-3z"/>
   <path id="8" class="fil1" d="M854 494c0,2 0,4 1,5 1,1 2,2 3,2 1,0 2,-1 3,-2 1,-1 1,-3 1,-5 0,-2 0,-4 -1,-5 -1,-1 -2,-2 -3,-2 -1,0 -2,1 -3,2 -1,1 -1,3 -1,5zm-5 0c0,-3 0,-6 2,-8 2,-2 4,-3 7,-3 3,0 5,1 7,3 2,2 2,5 2,8 0,4 0,6 -2,8 -2,2 -4,3 -7,3 -3,0 -5,-1 -7,-3 -2,-2 -2,-4 -2,-8z"/>
   <path id="9" class="fil1" d="M871 505l0 -22 5 0 0 3c2,-1 3,-2 4,-3 1,0 2,0 3,0 2,0 4,0 5,1 1,2 1,3 1,6l0 15 -5 0 0 -14c0,-2 0,-3 -1,-3 0,-1 -1,-1 -2,-1 0,0 -1,0 -2,1 -1,0 -2,1 -2,1l0 16 -6 0z"/>
   <path id="10" class="fil1" d="M905 494c-2,1 -4,1 -5,2 -1,1 -2,2 -2,3 0,1 0,1 1,2 0,0 1,0 1,0 1,0 2,0 3,0 1,-1 1,-1 2,-2l0 -5zm1 11l-1 -2c-1,1 -2,1 -3,2 -1,0 -2,0 -3,0 -2,0 -3,0 -4,-1 -1,-1 -2,-3 -2,-5 0,-2 1,-4 3,-5 2,-2 5,-3 9,-3l0 -2c0,-1 0,-1 0,-2 -1,0 -2,0 -3,0 -1,0 -2,0 -2,0 -1,1 -2,1 -2,2l-4 -2c1,-1 2,-3 3,-3 2,-1 4,-1 5,-1 3,0 5,0 6,1 2,2 2,3 2,5l0 13c0,0 1,1 1,1 0,1 0,1 0,2l-5 0z"/>
   <polygon id="11" class="fil1" points="916,505 916,475 921,475 921,505 "/>
   <path id="12" class="fil1" d="M938 501l3 -3c1,1 2,2 3,3 0,0 1,0 2,0 1,0 2,0 2,0 1,-1 1,-1 1,-2 0,-1 -1,-2 -3,-3 -1,0 -1,0 -1,0 -3,-1 -4,-2 -5,-3 -1,-1 -2,-2 -2,-4 0,-2 1,-3 2,-5 2,-1 4,-1 6,-1 1,0 3,0 4,1 1,0 2,1 3,2l-3 3c-1,-1 -2,-1 -2,-2 -1,0 -2,0 -2,0 -1,0 -2,0 -2,0 -1,1 -1,1 -1,2 0,1 1,2 3,2 1,1 1,1 2,1 2,1 4,2 4,3 1,1 2,2 2,4 0,2 -1,3 -2,5 -2,1 -4,2 -6,2 -2,0 -3,-1 -5,-2 -1,0 -2,-1 -3,-3z"/>
   <path id="13" class="fil1" d="M964 498c0,2 0,2 0,3 0,0 1,0 2,0 0,0 0,0 1,0 0,0 1,0 1,0l0 4c-1,0 -1,0 -2,0 -1,0 -2,1 -2,1 -2,0 -4,-1 -4,-2 -1,-1 -2,-2 -2,-4l0 -13 -2 0 0 -4 2 0 0 -7 6 0 0 7 4 0 0 4 -4 0 0 11z"/>
   <path id="14" class="fil1" d="M971 505l0 -22 5 0 0 4c1,-2 2,-3 3,-3 1,-1 2,-1 3,-1 0,0 0,0 0,0 0,0 0,0 0,0l0 5 0 0c-1,0 -2,0 -3,1 -1,1 -2,2 -2,3l0 13 -6 0z"/>
   <path id="15" class="fil1" d="M997 494c-3,1 -5,1 -6,2 -1,1 -2,2 -2,3 0,1 1,1 1,2 0,0 1,0 2,0 1,0 1,0 2,0 1,-1 2,-1 3,-2l0 -5zm0 11l0 -2c-1,1 -2,1 -3,2 -2,0 -3,0 -4,0 -2,0 -3,0 -4,-1 -1,-1 -2,-3 -2,-5 0,-2 1,-4 3,-5 2,-2 5,-3 10,-3l0 -2c0,-1 -1,-1 -1,-2 -1,0 -1,0 -2,0 -1,0 -2,0 -3,0 -1,1 -2,1 -2,2l-4 -2c1,-1 2,-3 4,-3 1,-1 3,-1 5,-1 2,0 4,0 6,1 1,2 2,3 2,5l0 13c0,0 0,1 0,1 0,1 0,1 0,2l-5 0z"/>
   <path id="16" class="fil1" d="M1013 498c0,2 0,2 1,3 0,0 0,0 1,0 1,0 1,0 1,0 1,0 1,0 1,0l0 4c0,0 -1,0 -2,0 0,0 -1,1 -2,1 -2,0 -3,-1 -4,-2 -1,-1 -1,-2 -1,-4l0 -13 -3 0 0 -4 3 0 0 -7 5 0 0 7 4 0 0 4 -4 0 0 11z"/>
   <path id="17" class="fil1" d="M1024 491l8 0c0,-1 0,-2 -1,-3 0,-1 -1,-1 -3,-1 -1,0 -2,0 -2,1 -1,1 -1,2 -2,3zm13 10c-1,1 -2,2 -3,3 -2,1 -3,1 -5,1 -3,0 -6,-1 -7,-3 -2,-1 -3,-4 -3,-8 0,-3 1,-6 3,-8 1,-2 4,-3 6,-3 3,0 6,1 7,3 2,2 3,4 3,8 0,0 0,0 0,0 0,1 0,1 0,1l-14 0c0,2 1,4 2,5 0,1 2,1 3,1 1,0 2,0 3,0 0,-1 1,-2 2,-3l3 3z"/>
   <path id="18" class="fil1" d="M1047 505c-1,0 -2,0 -2,1 0,0 -1,0 -1,1 0,1 1,1 2,2 0,0 1,0 3,0 1,0 3,0 4,0 1,-1 1,-2 1,-2 0,-1 0,-1 0,-2 -1,0 -2,0 -3,0l-4 0zm-2 -15c0,1 1,2 1,3 1,0 2,1 3,1 1,0 2,-1 3,-1 0,-1 1,-2 1,-3 0,-1 -1,-2 -1,-2 -1,-1 -2,-1 -3,-1 -1,0 -2,0 -3,1 0,0 -1,1 -1,2zm-2 14c-1,-1 -2,-2 -2,-2 0,-1 -1,-1 -1,-2 0,-1 1,-1 1,-2 1,-1 2,-1 3,-2 -1,-1 -2,-1 -3,-2 0,-1 0,-2 0,-4 0,-2 0,-4 2,-5 1,-2 3,-2 6,-2 1,0 2,0 3,0 1,0 2,1 2,1 1,0 2,-1 2,-1 1,0 2,-1 2,-1 1,0 1,0 1,0 0,0 0,0 0,0l0 4c0,0 0,0 0,0 0,0 -1,0 -1,0 0,0 -1,0 -1,0 0,0 0,1 -1,1 1,0 1,1 1,1 0,1 0,2 0,3 0,2 0,4 -2,5 -1,1 -3,2 -6,2 0,0 -1,0 -1,0 -1,0 -1,0 -1,-1 -1,1 -1,1 -1,1 -1,0 -1,1 -1,1 0,1 2,1 4,1 1,0 2,1 2,1 3,0 5,0 6,1 2,1 2,2 2,4 0,2 -1,4 -3,5 -1,1 -4,2 -7,2 -3,0 -6,0 -7,-1 -2,-1 -3,-3 -3,-4 0,-1 1,-2 1,-3 1,-1 2,-1 3,-1z"/>
   <path id="19" class="fil1" d="M1068 504l-8 -21 5 0 5 15 4 -15 5 0 -6 21c-2,4 -3,6 -4,7 -1,1 -3,2 -5,2 -1,0 -1,0 -2,0 0,0 0,0 -1,0l0 -5c1,0 1,1 1,1 1,0 1,0 1,0 2,0 2,-1 3,-1 1,-1 1,-2 2,-4z"/>
   <path id="20" class="fil1" d="M1106 494c-3,1 -4,1 -5,2 -2,1 -2,2 -2,3 0,1 0,1 0,2 1,0 1,0 2,0 1,0 2,0 3,0 0,-1 1,-1 2,-2l0 -5zm1 11l-1 -2c-1,1 -2,1 -3,2 -1,0 -2,0 -3,0 -2,0 -4,0 -5,-1 -1,-1 -1,-3 -1,-5 0,-2 1,-4 3,-5 2,-2 5,-3 9,-3l0 -2c0,-1 0,-1 -1,-2 0,0 -1,0 -2,0 -1,0 -2,0 -3,0 -1,1 -1,1 -2,2l-3 -2c1,-1 2,-3 3,-3 2,-1 3,-1 5,-1 3,0 5,0 6,1 1,2 2,3 2,5l0 13c0,0 0,1 0,1 0,1 0,1 0,2l-4 0z"/>
   <path id="21" class="fil1" d="M1117 505l0 -22 4 0 0 3c2,-1 3,-2 4,-3 1,0 2,0 3,0 2,0 4,0 5,1 1,2 1,3 1,6l0 15 -5 0 0 -14c0,-2 0,-3 0,-3 -1,-1 -2,-1 -2,-1 -1,0 -2,0 -3,1 -1,0 -1,1 -2,1l0 16 -5 0z"/>
   <path id="22" class="fil1" d="M1150 494c-2,1 -4,1 -5,2 -1,1 -2,2 -2,3 0,1 1,1 1,2 0,0 1,0 2,0 0,0 1,0 2,0 1,-1 2,-1 2,-2l0 -5zm1 11l0 -2c-1,1 -2,1 -4,2 -1,0 -2,0 -3,0 -2,0 -3,0 -4,-1 -1,-1 -2,-3 -2,-5 0,-2 1,-4 3,-5 2,-2 5,-3 10,-3l0 -2c0,-1 -1,-1 -1,-2 -1,0 -1,0 -2,0 -1,0 -2,0 -3,0 -1,1 -2,1 -2,2l-4 -2c1,-1 2,-3 4,-3 1,-1 3,-1 5,-1 2,0 4,0 6,1 1,2 2,3 2,5l0 13c0,0 0,1 0,1 0,1 0,1 0,2l-5 0z"/>
   <polygon id="23" class="fil1" points="1161,505 1161,475 1166,475 1166,505 "/>
   <path id="24" class="fil1" d="M1177 504l-8 -21 5 0 5 15 5 -15 5 0 -7 21c-1,4 -3,6 -4,7 -1,1 -3,2 -5,2 0,0 -1,0 -1,0 0,0 -1,0 -1,0l0 -5c0,0 0,1 1,1 0,0 1,0 1,0 1,0 2,-1 3,-1 0,-1 1,-2 1,-4z"/>
   <path id="25" class="fil1" d="M1190 501l4 -3c0,1 1,2 2,3 1,0 2,0 3,0 1,0 1,0 2,0 0,-1 1,-1 1,-2 0,-1 -2,-2 -4,-3 0,0 0,0 0,0 -3,-1 -5,-2 -6,-3 -1,-1 -1,-2 -1,-4 0,-2 0,-3 2,-5 1,-1 3,-1 5,-1 2,0 3,0 4,1 2,0 3,1 4,2l-4 3c0,-1 -1,-1 -2,-2 0,0 -1,0 -2,0 -1,0 -1,0 -2,0 0,1 -1,1 -1,2 0,1 1,2 4,2 0,1 1,1 1,1 3,1 4,2 5,3 1,1 1,2 1,4 0,2 0,3 -2,5 -1,1 -3,2 -5,2 -2,0 -4,-1 -5,-2 -2,0 -3,-1 -4,-3z"/>
   <path id="26" class="fil1" d="M1216 498c0,2 0,2 1,3 0,0 0,0 1,0 1,0 1,0 1,0 1,0 1,0 1,0l0 4c0,0 -1,0 -2,0 0,0 -1,1 -2,1 -2,0 -3,-1 -4,-2 -1,-1 -1,-2 -1,-4l0 -13 -3 0 0 -4 3 0 0 -7 5 0 0 7 4 0 0 4 -4 0 0 11z"/>
  </g>
 </g>
</svg>
