<?xml version="1.0" encoding="UTF-8"?>
<!DOCTYPE svg PUBLIC "-//W3C//DTD SVG 1.1//EN" "http://www.w3.org/Graphics/SVG/1.1/DTD/svg11.dtd">
<!-- Creator: CorelDRAW X7 -->
<svg xmlns="http://www.w3.org/2000/svg" xml:space="preserve" width="3.27778in" height="3.52778in" version="1.1" style="shape-rendering:geometricPrecision; text-rendering:geometricPrecision; image-rendering:optimizeQuality; fill-rule:evenodd; clip-rule:evenodd"
viewBox="0 0 1261 1358"
 xmlns:xlink="http://www.w3.org/1999/xlink">
 <defs>
  <style type="text/css">
   <![CDATA[
    .fil0 {fill:white}
    .fil1 {fill:black;fill-rule:nonzero}
   ]]>
  </style>
 </defs>
 <g id="Layer_x0020_1">
  <metadata id="CorelCorpID_0Corel-Layer"/>
  <g id="_2432765102528">
   <path class="fil0" d="M0 0l1261 0 0 1358 -1261 0 0 -1358zm248 386l-8 -1c-11,-1 -13,-4 -13,-22l0 -106c-22,3 -42,5 -63,6l0 10c20,3 21,4 21,21l0 80c-7,7 -15,9 -23,9 -12,0 -23,-8 -23,-29l0 -47c0,-19 0,-36 1,-50 -21,3 -40,5 -60,6l0 10c16,4 18,5 18,21l0 67c0,29 15,47 42,47 11,0 19,-4 29,-10 7,-4 10,-7 16,-12l0 20 3 2c21,-5 40,-9 60,-12l0 -10zm183 18l0 -11c-17,-2 -19,-3 -19,-23l0 -62c0,-33 -16,-52 -42,-52 -10,0 -16,2 -26,9 -7,4 -14,9 -20,14l0 -24c-20,5 -41,10 -59,12l0 10c16,3 17,4 17,24l0 67c0,22 -1,23 -22,25l0 11 79 0 0 -11c-13,-2 -15,-3 -15,-23l0 -79c8,-7 16,-10 24,-10 12,0 23,7 23,30l0 56c0,23 -2,24 -16,26l0 11 76 0zm180 75l0 -10c-20,-3 -21,-4 -21,-24l0 -151c0,-22 0,-28 0,-35l-1 -1c-8,3 -14,4 -17,4 -3,0 -6,0 -11,-2 -3,-1 -10,-3 -23,-4 -49,-1 -92,36 -92,82 0,32 23,70 76,70l26 -11 0 48c0,20 -3,21 -26,24l0 10 89 0zm-63 -94c-4,2 -8,3 -12,3 -18,0 -44,-22 -44,-61 0,-40 19,-58 34,-58 7,0 15,5 22,13l0 103zm238 1l-8 -1c-11,-1 -13,-4 -13,-22l0 -106c-22,3 -42,5 -63,6l0 10c20,3 21,4 21,21l0 80c-7,7 -15,9 -23,9 -12,0 -23,-8 -23,-29l0 -47c0,-19 0,-36 1,-50 -21,3 -40,5 -60,6l0 10c16,4 18,5 18,21l0 67c0,29 15,47 42,47 11,0 19,-4 29,-10 7,-4 10,-7 16,-12l0 20 3 2c21,-5 40,-9 60,-12l0 -10zm136 -22c-11,10 -23,14 -36,14 -23,0 -43,-18 -44,-53 32,-1 72,-4 78,-5 7,-1 9,-5 9,-12 0,-27 -23,-52 -53,-52 -18,0 -36,8 -50,23 -14,13 -24,34 -24,59 0,37 24,70 67,70 14,0 39,-7 59,-36l-6 -8zm-53 -95c13,0 20,17 20,33 0,6 -2,6 -7,7 -13,0 -25,0 -39,1 2,-26 14,-41 26,-41zm176 30c-1,-7 -4,-30 -8,-38 -7,-3 -16,-5 -31,-5 -34,0 -55,20 -55,46 0,28 26,41 42,48 20,10 24,18 24,27 0,10 -7,18 -18,18 -20,0 -35,-22 -42,-43l-10 1c1,16 4,39 6,44 6,5 24,11 41,11 27,0 58,-16 58,-49 0,-25 -17,-36 -44,-48 -16,-7 -24,-15 -24,-25 0,-11 8,-18 17,-18 15,0 26,14 34,34l10 -3zm-867 440l-3 -11c-6,2 -11,4 -17,4 -6,0 -18,-3 -18,-29l0 -80 30 0c5,-3 6,-13 2,-16l-32 0 0 -48 -5 -1 -37 25 0 24 -13 0 -9 12 2 4 20 0 0 91c0,30 15,41 40,41 2,0 8,-1 14,-3l26 -13zm50 -157c13,0 24,-10 24,-23 0,-13 -11,-22 -24,-22 -12,0 -23,9 -23,22 0,13 11,23 23,23zm45 169l0 -10c-20,-3 -21,-4 -21,-27l0 -111c-19,5 -40,9 -60,12l0 9c16,3 18,4 18,25l0 65c0,23 -2,25 -21,27l0 10 84 0zm93 -148c-37,0 -78,27 -78,79 0,36 25,73 76,73 39,0 76,-26 76,-78 0,-40 -29,-74 -74,-74zm-5 13c21,0 32,25 32,70 0,48 -13,57 -25,57 -21,0 -33,-32 -33,-72 0,-38 13,-55 26,-55zm265 135l0 -10c-17,-3 -19,-3 -19,-24l0 -62c0,-32 -17,-52 -43,-52 -9,0 -16,3 -25,9 -8,5 -14,10 -21,14l0 -24c-19,6 -40,10 -59,13l0 9c16,3 18,4 18,24l0 68c0,22 -2,22 -22,25l0 10 79 0 0 -10c-14,-2 -16,-3 -16,-24l0 -79c9,-6 16,-10 24,-10 12,0 23,7 23,31l0 55c0,24 -2,25 -15,27l0 10 76 0zm157 -14l-3 -11c-4,1 -7,3 -11,3 -5,0 -11,-4 -11,-19l0 -54c0,-19 -2,-33 -17,-44 -8,-6 -18,-9 -32,-9 -18,3 -41,15 -54,23 -7,6 -11,10 -11,16 0,8 12,16 20,16 7,0 11,-2 14,-11 2,-10 5,-18 9,-22 3,-4 7,-6 11,-6 12,0 20,11 20,32l0 9c-8,7 -33,15 -52,22 -17,6 -25,14 -25,31 0,21 16,42 44,42 6,0 22,-11 34,-19 2,4 4,8 9,12 4,4 11,7 20,7l35 -18zm-65 -11c-6,3 -9,5 -14,5 -7,0 -19,-7 -19,-25 0,-12 5,-17 15,-23 7,-3 12,-7 18,-10l0 53zm127 -111l0 -93c-18,5 -45,9 -61,11l0 10c18,2 20,4 20,23l0 178c22,8 39,11 57,11 48,0 85,-35 85,-83 0,-37 -28,-69 -68,-69 -6,0 -11,2 -20,6l-13 6zm0 11c5,-1 9,-2 14,-2 21,0 42,17 42,58 0,41 -16,61 -34,60 -10,0 -18,-10 -20,-15 -1,-3 -2,-6 -2,-11l0 -90zm198 125l0 -10c-20,-2 -22,-4 -22,-26l0 -193c-18,5 -43,9 -61,11l0 10c18,2 19,3 19,23l0 149c0,21 -2,23 -21,26l0 10 85 0zm135 -40c-11,10 -23,14 -36,14 -23,0 -43,-17 -44,-52 32,-2 72,-5 78,-6 7,-1 9,-5 9,-12 0,-26 -23,-52 -53,-52 -18,0 -36,9 -50,23 -14,14 -24,34 -24,59 0,38 24,70 67,70 14,0 39,-6 59,-36l-6 -8zm-53 -95c13,0 20,17 20,34 0,5 -2,6 -7,6 -13,0 -25,1 -39,1 2,-26 14,-41 26,-41zm-983 369l0 -35c-20,6 -39,10 -59,12l0 10c15,3 18,5 18,21l0 71c0,21 -3,22 -21,24l0 11 89 0 0 -11c-25,-2 -27,-3 -27,-24l0 -60c6,-13 12,-17 19,-17 5,0 9,2 15,7 2,1 5,2 10,1 9,-3 16,-13 16,-24 0,-11 -9,-21 -22,-21 -12,0 -25,14 -37,35l-1 0zm188 74c-11,9 -23,14 -36,14 -23,0 -42,-18 -44,-53 32,-1 72,-5 78,-5 7,-1 9,-6 9,-12 1,-27 -23,-53 -53,-53 -18,0 -36,9 -50,24 -14,13 -24,34 -24,59 0,37 24,70 67,70 14,0 39,-7 59,-37l-6 -7zm-53 -96c13,0 20,17 20,34 0,6 -2,6 -7,7 -13,0 -25,0 -38,1 1,-27 13,-42 25,-42zm176 31c0,-7 -4,-30 -8,-38 -7,-3 -16,-6 -31,-6 -34,0 -55,21 -55,47 0,28 27,41 42,48 20,10 24,18 24,27 0,10 -7,18 -18,18 -19,0 -35,-23 -42,-43l-10 1c1,15 4,38 6,44 6,4 24,11 41,11 27,0 58,-16 58,-49 0,-25 -17,-37 -44,-48 -16,-8 -24,-15 -24,-25 0,-11 8,-18 17,-18 15,0 26,14 34,33l10 -2zm191 86l-7 0c-12,-1 -14,-4 -14,-22l0 -106c-22,3 -42,5 -63,6l0 9c20,4 21,5 21,22l0 79c-7,8 -14,10 -23,10 -12,0 -23,-8 -23,-29l0 -48c0,-19 1,-35 1,-49 -20,3 -40,5 -60,6l0 9c16,5 18,6 18,22l0 67c0,29 15,47 43,47 10,0 19,-4 28,-10 7,-4 10,-8 16,-12l0 19 3 3c21,-5 40,-9 60,-12l0 -11zm95 19l0 -11c-20,-2 -22,-3 -22,-25l0 -194c-18,5 -42,9 -61,12l0 9c18,3 20,4 20,23l0 150c0,21 -2,22 -21,25l0 11 84 0zm109 -12l-3 -12c-6,3 -11,4 -17,4 -6,0 -18,-3 -18,-28l0 -81 30 0c5,-3 6,-12 2,-16l-32 0 0 -47 -5 -2 -37 25 0 24 -13 0 -9 12 2 4 20 0 0 92c0,29 15,41 40,41 2,0 8,-2 14,-4l26 -12zm114 -93c-1,-7 -5,-30 -8,-38 -8,-3 -16,-6 -31,-6 -35,0 -55,21 -55,47 0,28 26,41 41,48 20,10 25,18 25,27 0,10 -7,18 -18,18 -20,0 -35,-23 -42,-43l-10 1c0,15 3,38 5,44 7,4 24,11 41,11 28,0 59,-16 59,-49 0,-25 -18,-37 -44,-48 -17,-8 -24,-15 -24,-25 0,-11 8,-18 16,-18 16,0 26,14 35,33l10 -2z"/>
   <path class="fil1" d="M429 202c0,-1 -1,-1 -2,-2 0,0 -1,-1 -2,-1l0 -6c2,0 3,1 4,1 1,1 2,2 3,3 0,0 0,-1 0,-2 1,-1 1,-2 1,-3 0,-4 -1,-7 -2,-9 -2,-2 -3,-3 -6,-3 -3,0 -4,1 -6,3 -1,2 -2,5 -2,8 0,4 1,7 2,9 2,2 3,3 6,3 1,0 1,0 2,0 1,0 1,-1 2,-1zm11 9l-1 0c-1,0 -3,0 -4,-1 -1,-1 -2,-2 -3,-3 -1,1 -2,1 -3,1 -1,1 -3,1 -4,1 -4,0 -8,-2 -10,-5 -3,-3 -4,-7 -4,-13 0,-5 1,-9 4,-12 2,-4 6,-5 10,-5 4,0 8,1 10,5 3,3 4,7 4,12 0,3 0,5 -1,7 0,2 -1,4 -2,5 1,1 1,1 2,2 1,0 1,0 2,0l0 6z"/>
   <path id="1" class="fil1" d="M445 196l0 -22 6 0 0 22c0,3 1,4 2,6 1,1 2,1 5,1 2,0 4,0 5,-1 1,-1 1,-3 1,-6l0 -22 7 0 0 23c0,4 -2,7 -4,9 -2,2 -5,3 -9,3 -5,0 -8,-1 -10,-3 -2,-2 -3,-6 -3,-10z"/>
   <polygon id="2" class="fil1" points="478,208 478,174 500,174 500,180 485,180 485,188 496,188 496,193 485,193 485,203 501,203 501,208 "/>
   <path id="3" class="fil1" d="M504 201l6 -3c0,2 1,3 3,4 1,1 2,1 4,1 1,0 3,0 4,-1 1,-1 1,-2 1,-3 0,-1 0,-2 -1,-3 -1,0 -2,-1 -4,-2 0,0 -1,0 -1,0 -3,-1 -6,-2 -7,-3 -1,-1 -2,-2 -3,-3 -1,-2 -1,-3 -1,-5 0,-3 1,-5 3,-7 2,-1 5,-2 8,-2 3,0 5,1 7,2 2,1 4,3 4,5l-5 2c-1,-1 -2,-2 -3,-3 -1,-1 -2,-1 -3,-1 -2,0 -3,0 -4,1 -1,1 -1,2 -1,3 0,1 2,3 6,5 1,0 2,0 3,1 3,1 5,3 6,4 2,1 2,3 2,6 0,3 -1,5 -3,7 -2,2 -5,3 -8,3 -3,0 -6,-1 -8,-2 -2,-2 -4,-4 -5,-6z"/>
   <polygon id="4" class="fil1" points="540,208 540,180 531,180 531,174 555,174 555,180 546,180 546,208 "/>
   <polygon id="5" class="fil1" points="561,208 561,174 567,174 567,208 "/>
   <path id="6" class="fil1" d="M580 191c0,4 1,7 2,9 1,2 3,3 6,3 2,0 4,-1 5,-3 1,-2 2,-5 2,-9 0,-3 -1,-6 -2,-8 -1,-2 -3,-3 -5,-3 -3,0 -5,1 -6,3 -1,2 -2,5 -2,8zm-7 0c0,-5 2,-9 4,-12 3,-4 6,-5 10,-5 5,0 8,1 11,5 2,3 4,7 4,12 0,6 -2,10 -4,13 -3,3 -6,5 -11,5 -4,0 -7,-2 -10,-5 -2,-3 -4,-7 -4,-13z"/>
   <path id="7" class="fil1" d="M613 195l9 0 -4 -15 -5 15zm-9 13l10 -34 8 0 10 34 -6 0 -2 -7 -12 0 -2 7 -6 0z"/>
   <path id="8" class="fil1" d="M642 188l5 0c2,0 4,0 5,-1 1,-1 1,-2 1,-3 0,-2 0,-3 -1,-3 -1,-1 -3,-1 -5,-1l-5 0 0 8zm0 15l5 0c3,0 4,0 5,-1 2,-1 2,-2 2,-4 0,-2 0,-3 -1,-4 -2,-1 -3,-1 -5,-1l-6 0 0 10zm-6 5l0 -34 12 0c4,0 7,1 9,3 2,1 3,3 3,6 0,2 -1,3 -1,5 -1,1 -3,2 -4,3 2,0 3,1 4,3 1,1 2,3 2,5 0,3 -2,5 -4,7 -2,2 -5,2 -9,2l-12 0z"/>
   <polygon id="9" class="fil1" points="667,208 667,174 674,174 674,203 688,203 688,208 "/>
   <polygon id="10" class="fil1" points="693,208 693,174 715,174 715,180 699,180 699,188 711,188 711,193 699,193 699,203 716,203 716,208 "/>
   <polygon id="11" class="fil1" points="741,208 741,180 732,180 732,174 757,174 757,180 748,180 748,208 "/>
   <polygon id="12" class="fil1" points="762,208 762,174 784,174 784,180 768,180 768,188 779,188 779,193 768,193 768,203 784,203 784,208 "/>
   <path id="13" class="fil1" d="M796 195l8 0 -4 -15 -4 15zm-10 13l10 -34 8 0 11 34 -7 0 -2 -7 -12 0 -2 7 -6 0z"/>
   <path id="14" class="fil1" d="M819 208l0 -34 9 0 5 17c0,1 0,3 1,4 0,2 0,3 1,4 0,-1 0,-2 0,-4 1,-1 1,-2 2,-4l5 -17 9 0 0 34 -6 0 0 -28c0,1 -1,2 -1,4 0,1 -1,2 -1,3l-6 21 -5 0 -6 -21c-1,-2 -1,-3 -1,-4 -1,-2 -1,-2 -1,-3l0 28 -5 0z"/>
  </g>
 </g>
</svg>
